<?xml version="1.0" encoding="utf-8"?>
<!-- Generator: Adobe Illustrator 17.0.0, SVG Export Plug-In . SVG Version: 6.00 Build 0)  -->
<!DOCTYPE svg PUBLIC "-//W3C//DTD SVG 1.1//EN" "http://www.w3.org/Graphics/SVG/1.1/DTD/svg11.dtd">
<svg version="1.1" id="Laag_1" xmlns="http://www.w3.org/2000/svg" xmlns:xlink="http://www.w3.org/1999/xlink" x="0px" y="0px"
	 width="34.15px" height="33.199px" viewBox="0 0 34.15 33.199" enable-background="new 0 0 34.15 33.199" xml:space="preserve">
<g>
	<g>
		<path fill="#82B443" d="M0,33.199h20.411c1.693,0,3.698-1.239,4.455-2.754l8.991-17.982c0.757-1.514-0.009-2.754-1.702-2.754
			h-5.588c-1.693,0-4.464,0-6.157,0H3.079C1.385,9.71,0,11.095,0,12.788"/>
	</g>
	<g>
		<path fill="#82B443" d="M-217.027,12.788c0-1.693-1.385-3.079-3.079-3.079h-17.332c-1.693,0-3.698,1.239-4.455,2.754
			l-8.991,17.982c-0.757,1.514,0.009,2.754,1.702,2.754h5.588c1.693,0,4.464,0,6.157,0h20.411"/>
	</g>
	<g>
		<polygon fill="#7B9F30" points="-217.027,33.199 -229.384,21.454 -229.858,4.109 -217.027,0 		"/>
	</g>
	<g>
		<polygon fill="#7B9F30" points="0,33.199 12.358,21.454 7.157,0 0,0 		"/>
	</g>
	<g>
		<path fill="#82B443" d="M12.357,20.411V3.079C12.357,1.385,10.972,0,9.279,0l-95.305,0c-1.693,0-3.135,0-3.203,0
			c-0.069,0-1.51,0-3.203,0l-17.083,0c-1.693,0-4.464,0-6.157,0l-17.332,0c-1.693,0-4.464,0-6.157,0l-17.149,0
			c-1.693,0-3.12,0-3.17,0c-0.05,0-1.477,0-3.17,0L-179.8,0c-1.693,0-4.464,0-6.157,0l-17.332,0c-1.693,0-4.464,0-6.157,0l-17.332,0
			c-1.693,0-3.079,1.385-3.079,3.079v17.332c0,1.693,1.385,3.079,3.079,3.079h17.332c1.693,0,4.464,0,6.157,0h17.332
			c1.693,0,4.464,0,6.157,0h17.149c1.693,0,3.12,0,3.17,0s1.477,0,3.17,0h17.149c1.693,0,4.464,0,6.157,0h17.332
			c1.693,0,4.464,0,6.157,0h17.083c1.693,0,3.135,0,3.203,0s100.509,0,102.202,0"/>
	</g>
</g>
</svg>
