<?xml version="1.0" encoding="utf-8"?>
<!-- Generator: Adobe Illustrator 17.0.0, SVG Export Plug-In . SVG Version: 6.00 Build 0)  -->
<!DOCTYPE svg PUBLIC "-//W3C//DTD SVG 1.1//EN" "http://www.w3.org/Graphics/SVG/1.1/DTD/svg11.dtd">
<svg version="1.1" id="Laag_1" xmlns="http://www.w3.org/2000/svg" xmlns:xlink="http://www.w3.org/1999/xlink" x="0px" y="0px"
	 width="58.992px" height="58.195px" viewBox="0 0 58.992 58.195" enable-background="new 0 0 58.992 58.195" xml:space="preserve">
<g>
	<g>
		<g>
			<path fill="#C28023" d="M-32.124,51.106l0.222-3.12l-2.416-1.544v-1.896v-0.659V28.539l9.016-10.825l-0.003,4.451l0.003,21.429
				l-0.002,0v1.077c4.793-3.721,7.724-9.52,7.724-15.726c0-10.962-8.919-19.881-19.881-19.881s-19.881,8.919-19.881,19.881
				c0,6.775,3.412,12.964,8.929,16.599l-0.021-0.479l0.374-3.144l-3.639-2.471v-7.83h0.019l0.31-13.352h1.291l0.788,13.352h1.175
				l0.394-13.352h1.621l0.394,13.352h1.378l0.384-13.022h1.621l0.384,13.022h1.185l0.788-13.352h1.291l0.311,13.352h0.019v7.83
				l-3.64,2.471l0.374,3.144l-0.556,12.534c1.533,0.25,3.105,0.386,4.709,0.386c1.955,0,3.864-0.196,5.71-0.565L-32.124,51.106z"/>
		</g>
		<g>
			<path fill="#C28023" d="M-37.46-0.094c-16.038,0-29.04,13.002-29.04,29.04c0,12.339,7.699,22.873,18.553,27.079l-0.369-8.324
				c-6.644-3.84-10.812-10.939-10.812-18.755c0-11.948,9.72-21.668,21.668-21.668s21.668,9.72,21.668,21.668
				c0,7.224-3.644,13.94-9.511,17.933v4.227l-0.256,4.327C-15.458,50.887-8.42,40.741-8.42,28.945
				C-8.42,12.907-21.422-0.094-37.46-0.094z"/>
		</g>
	</g>
</g>
<path fill="#C28023" d="M46.08,46.799l-1.165,0.669c-1.068,0.613-4.909,2.617-9.515,2.649c-4.339,0.03-8.103-1.482-10.867-4.355
	c-2.047-2.243-3.439-5.273-4.146-9.019l23.124-0.163l-0.043-6.119l-23.88,0.168l-0.003-0.44c-0.006-0.792,0.029-1.628,0.075-2.417
	l23.787-0.167l-0.044-6.202l-22.732,0.16c0.849-3.756,2.333-6.749,4.353-8.731c2.614-2.807,6.006-4.245,10.082-4.273
	c3.758-0.026,7.036,1.112,8.701,2.096l1.151,0.68l2.23-7.547L46.434,3.39c-1.931-1.017-5.986-2.717-11.463-2.678
	c-6.749,0.047-12.47,2.495-17,7.269c-3.407,3.541-5.74,8.246-6.777,13.65l-5.61,0.039l0.044,6.202l4.786-0.034
	c-0.047,0.862-0.08,1.735-0.073,2.664l0.001,0.193l-4.694,0.033l0.043,6.119l5.239-0.037c0.888,5.654,2.957,10.285,6.145,13.759
	c4.31,4.93,10.546,7.617,17.559,7.567c6.755-0.047,11.221-2.623,12.829-3.728l0.612-0.422L46.08,46.799z"/>
<g>
	<path fill="#C58021" d="M99.483,0.558c-12.164-1.649-23.28,6.27-24.929,18.435c0,0-0.219,1.447-0.577,4.089
		c-0.455,3.358,1.263,9.849,3.817,14.424l8.778,15.721c2.555,4.575,7.656,5.267,11.336,1.536l12.646-12.818
		c3.508-3.556,6.738-8.967,7.423-12.35l0.628-4.633C120.254,12.799,111.647,2.207,99.483,0.558z M95.816,27.527
		c-4.013-0.544-6.826-4.238-6.282-8.251c0.544-4.013,4.238-6.826,8.251-6.282c4.013,0.544,6.826,4.238,6.282,8.251
		C103.524,25.259,99.83,28.071,95.816,27.527z"/>
	<g>
		<path fill="#C58021" d="M99.483,0.558c0,0-0.611-0.051-1.757-0.147c-1.146-0.078-2.838-0.059-4.964,0.229
			c-2.109,0.359-4.656,1.064-7.256,2.533c-2.589,1.447-5.267,3.638-7.232,6.722c-1.04,1.498-1.801,3.253-2.436,5.094
			c-0.591,1.872-0.871,3.853-1.112,5.963c-0.064,0.523-0.128,1.05-0.193,1.581c-0.023,0.248-0.085,0.57-0.077,0.759l-0.026,0.809
			c0.002,1.068,0.137,2.052,0.346,3.137c0.42,2.124,1.093,4.256,1.944,6.345c0.855,2.088,2.028,4.031,3.235,6.098
			c1.179,2.053,2.373,4.13,3.576,6.224c1.194,2.1,2.397,4.216,3.604,6.34l0.225,0.399l0.056,0.1
			c-0.03-0.052,0.027,0.041,0.036,0.055l0.122,0.194c0.163,0.25,0.328,0.547,0.487,0.718c0.3,0.394,0.675,0.81,1.086,1.138
			c0.815,0.678,1.786,1.127,2.804,1.271c1.02,0.129,2.075-0.043,3.041-0.481c0.486-0.21,0.945-0.498,1.376-0.829
			c0.439-0.333,0.808-0.694,1.257-1.146c1.729-1.727,3.451-3.447,5.16-5.154c1.717-1.699,3.42-3.384,5.102-5.05
			c0.833-0.825,1.722-1.653,2.492-2.459c0.838-0.841,1.543-1.692,2.248-2.557c1.393-1.774,2.598-3.66,3.567-5.594
			c0.26-0.478,0.464-0.971,0.661-1.464c0.225-0.488,0.366-0.986,0.508-1.482l0.111-0.371c0.019-0.063,0.041-0.247,0.061-0.364
			l0.123-0.794c0.082-0.528,0.163-1.052,0.244-1.573c0.081-0.521,0.161-1.038,0.24-1.552c0.084-0.471,0.115-1.018,0.174-1.517
			c0.151-1.029,0.101-1.999,0.111-2.971c-0.122-1.939-0.387-3.836-0.991-5.556c-1.073-3.496-3.069-6.322-5.179-8.405
			c-2.114-2.108-4.382-3.467-6.319-4.374c-1.972-0.843-3.599-1.313-4.724-1.542C100.086,0.672,99.483,0.558,99.483,0.558z
			 M99.483,0.558c0,0,0.604,0.109,1.736,0.313c1.128,0.221,2.76,0.678,4.743,1.508c1.949,0.897,4.224,2.243,6.412,4.304
			c2.181,2.05,4.235,4.867,5.487,8.378c0.682,1.736,1.031,3.661,1.232,5.666c0.031,1.011,0.113,2.061,0.002,3.07
			c-0.042,0.52-0.047,1.007-0.12,1.564c-0.06,0.516-0.12,1.036-0.181,1.56c-0.061,0.524-0.122,1.051-0.184,1.582l-0.093,0.799
			c-0.02,0.148-0.02,0.234-0.058,0.434l-0.104,0.41c-0.134,0.55-0.273,1.104-0.487,1.622c-0.189,0.532-0.388,1.063-0.637,1.57
			c-0.937,2.061-2.107,4.051-3.484,5.95c-0.71,0.947-1.457,1.908-2.239,2.752c-0.811,0.913-1.617,1.719-2.433,2.592
			c-1.642,1.705-3.305,3.431-4.98,5.17c-1.684,1.732-3.381,3.477-5.084,5.229c-0.842,0.885-1.941,1.849-3.199,2.404
			c-1.258,0.583-2.709,0.848-4.127,0.665c-1.415-0.204-2.743-0.843-3.8-1.74c-0.538-0.445-0.993-0.944-1.425-1.529
			c-0.24-0.296-0.366-0.54-0.536-0.804l-0.121-0.195l-0.085-0.14l-0.055-0.1l-0.222-0.401c-1.175-2.143-2.345-4.277-3.506-6.395
			c-1.152-2.123-2.294-4.229-3.423-6.31c-1.102-2.062-2.274-4.182-3.083-6.394c-0.803-2.204-1.413-4.428-1.769-6.663
			c-0.175-1.092-0.284-2.297-0.237-3.389l0.057-0.807c0.019-0.349,0.078-0.553,0.115-0.836c0.085-0.527,0.169-1.052,0.252-1.572
			c0.314-2.067,0.689-4.153,1.37-6.047c0.726-1.875,1.575-3.64,2.694-5.131c2.141-3.052,4.869-5.222,7.517-6.616
			c2.657-1.404,5.208-2.097,7.325-2.443c2.132-0.272,3.828-0.278,4.973-0.191C98.872,0.502,99.483,0.558,99.483,0.558z"/>
		<path fill="#C58021" d="M95.816,27.527c0,0-0.177-0.031-0.51-0.089c-0.33-0.06-0.818-0.175-1.401-0.419
			c-0.58-0.245-1.27-0.603-1.961-1.161c-0.692-0.555-1.37-1.32-1.925-2.286c-0.537-0.972-0.916-2.163-0.986-3.477
			c-0.006-0.335-0.008-0.645,0.024-1.019c0.042-0.32,0.055-0.622,0.151-0.988c0.144-0.721,0.403-1.38,0.749-2.042
			c0.35-0.656,0.818-1.259,1.351-1.819c0.549-0.547,1.198-1.002,1.895-1.387c1.408-0.766,3.097-1.021,4.716-0.836
			c0.465,0.093,0.699,0.116,1.166,0.266c0.429,0.114,0.795,0.279,1.169,0.438c0.732,0.354,1.413,0.803,1.992,1.354
			c0.571,0.557,1.073,1.17,1.46,1.841c0.365,0.683,0.656,1.389,0.818,2.115c0.334,1.441,0.208,2.925-0.183,4.132
			c-0.427,1.288-1.105,2.306-1.883,3.109c-0.792,0.783-1.651,1.338-2.465,1.69c-0.815,0.354-1.575,0.514-2.2,0.597
			c-0.627,0.08-1.127,0.061-1.462,0.031C95.996,27.545,95.816,27.527,95.816,27.527z M95.816,27.527c0,0,0.179,0.013,0.516,0.037
			c0.335,0.021,0.834,0.027,1.454-0.069c0.616-0.095,1.372-0.269,2.136-0.692c0.763-0.407,1.568-0.994,2.211-1.83
			c0.645-0.818,1.145-1.89,1.339-3c0.21-1.188,0.101-2.403-0.316-3.556c-0.421-1.147-1.167-2.185-2.124-2.974
			c-0.49-0.382-1.024-0.701-1.586-0.965c-0.29-0.112-0.583-0.235-0.854-0.297c-0.216-0.087-0.701-0.144-0.94-0.196
			c-0.618-0.076-1.245-0.091-1.861-0.004c-0.611,0.107-1.213,0.266-1.787,0.506c-1.132,0.507-2.131,1.307-2.842,2.303
			c-0.338,0.496-0.661,1.046-0.844,1.584c-0.116,0.25-0.184,0.588-0.267,0.89c-0.057,0.253-0.105,0.571-0.139,0.852
			c-0.11,1.163,0.09,2.3,0.493,3.269c0.398,0.977,1.02,1.756,1.646,2.352c0.624,0.611,1.307,0.979,1.875,1.235
			c0.572,0.258,1.053,0.385,1.383,0.454C95.64,27.492,95.816,27.527,95.816,27.527z"/>
	</g>
</g>
</svg>
