<?xml version="1.0" encoding="utf-8"?>
<!-- Generator: Adobe Illustrator 17.0.0, SVG Export Plug-In . SVG Version: 6.00 Build 0)  -->
<!DOCTYPE svg PUBLIC "-//W3C//DTD SVG 1.1//EN" "http://www.w3.org/Graphics/SVG/1.1/DTD/svg11.dtd">
<svg version="1.1" id="Laag_1" xmlns="http://www.w3.org/2000/svg" xmlns:xlink="http://www.w3.org/1999/xlink" x="0px" y="0px"
	 width="58.992px" height="58.195px" viewBox="0 0 58.992 58.195" enable-background="new 0 0 58.992 58.195" xml:space="preserve">
<path fill="#C28023" d="M-197.667,0v58.195h58.992V0H-197.667z M-168.17,53.124c-1.346,0-2.664-0.112-3.95-0.319l0.466-10.37
	l-0.313-2.601l3.052-2.045V31.31h-0.016l-0.261-11.047h-1.083l-0.661,11.047h-0.994l-0.323-10.774h-1.358l-0.323,10.774h-1.155
	l-0.331-11.047h-1.359l-0.331,11.047h-0.986l-0.66-11.047h-1.083l-0.26,11.047h-0.017v6.478l3.052,2.045l-0.313,2.601l0.018,0.397
	c-4.627-3.008-7.488-8.128-7.488-13.734c0-9.07,7.48-16.449,16.674-16.449c9.194,0,16.674,7.379,16.674,16.449
	c0,5.135-2.46,9.933-6.479,13.011v-0.891h0.002l-0.002-17.73l0.002-3.682l-7.563,8.956v12.698v0.546v1.568l2.027,1.277l-0.187,2.581
	l0.314,5.225C-164.93,52.962-166.531,53.124-168.17,53.124z M-158.189,51.012l0.214-3.58v-3.497
	c4.921-3.304,7.977-8.86,7.977-14.837c0-9.885-8.152-17.928-18.173-17.928c-10.021,0-18.174,8.042-18.174,17.928
	c0,6.467,3.495,12.34,9.068,15.518l0.31,6.887c-9.103-3.481-15.56-12.196-15.56-22.405c0-13.27,10.904-24.027,24.356-24.027
	c13.451,0,24.355,10.757,24.355,24.027C-143.815,38.857-149.717,47.251-158.189,51.012z"/>
<g>
	<rect x="-131.167" y="18.8" fill="#C68023" width="58.992" height="21.084"/>
</g>
<g>
	<g>
		<rect x="-64.667" y="18.641" fill="#C68023" width="58.992" height="20.736"/>
	</g>
	<g>
		<rect x="-45.713" y="0" fill="#C68023" width="21.084" height="58.018"/>
	</g>
</g>
<g>
	<rect x="0" y="0" fill="#C68023" width="58.992" height="12.819"/>
	<rect x="0" y="22.688" fill="#C68023" width="58.992" height="12.819"/>
	<rect x="0" y="45.376" fill="#C68023" width="58.992" height="12.819"/>
</g>
</svg>
