<?xml version="1.0" encoding="utf-8"?>
<!-- Generator: Adobe Illustrator 17.0.0, SVG Export Plug-In . SVG Version: 6.00 Build 0)  -->
<!DOCTYPE svg PUBLIC "-//W3C//DTD SVG 1.1//EN" "http://www.w3.org/Graphics/SVG/1.1/DTD/svg11.dtd">
<svg version="1.1" id="Laag_1" xmlns="http://www.w3.org/2000/svg" xmlns:xlink="http://www.w3.org/1999/xlink" x="0px" y="0px"
	 width="58.992px" height="58.195px" viewBox="0 0 58.992 58.195" enable-background="new 0 0 58.992 58.195" xml:space="preserve">
<g>
	<g>
		<g>
			<path fill="#6C6C6C" d="M20.54,51.819c-5.256,0-6.806-0.495-6.898-0.526l-0.385-0.13l-0.169-2.223
				C10.054,48.192,7.691,45.79,7,42.756l0,0L6.856,42.15l-0.044-0.575L5.224,31.257l-0.113-1.482l-2.377,0.182
				c-1.327,0.098-2.489-0.896-2.591-2.223l-0.137-1.794c-0.101-1.327,0.896-2.489,2.223-2.591l0.102-0.008l2.124,0.548l0.427-8.048
				l0.964,0.691L5.65,25.467l-3.418-0.882c-0.605,0.093-1.048,0.64-1,1.261L1.37,27.64c0.049,0.651,0.621,1.142,1.271,1.091
				l3.603-0.274l0.204,2.683l1.588,10.318l0.025,0.335l0.045,0.213c0.458,2.939,2.737,5.28,5.672,5.825l0.464,0.086l0.175,2.296
				c1.201,0.225,5.513,0.762,16.747-0.094c12.147-0.926,16.014-2.069,17.017-2.453l-0.192-2.514l0.383-0.18
				c2.455-1.156,4.047-3.646,4.054-6.344l0.001-0.369l-0.016-0.23l0.007-10.393l-0.204-2.683l3.902-0.298
				c0.652-0.05,1.142-0.62,1.092-1.271l-0.137-1.794c-0.024-0.314-0.17-0.6-0.411-0.807c-0.217-0.186-0.486-0.286-0.765-0.288
				l-4.023,1.776l-0.903-9.065l0.301-0.155l0.204-0.544l1.433,7.963l2.695-1.19l0.105-0.008c1.335-0.097,2.489,0.896,2.591,2.223
				l0.137,1.794c0.101,1.327-0.896,2.489-2.224,2.591l-2.677,0.204l0.115,1.529l-0.007,10.393l-0.007,1.194l0,0
				c-0.204,2.807-1.858,5.354-4.355,6.692l0.188,2.463l-0.298,0.2c-0.246,0.164-2.838,1.641-17.91,2.791
				C26.61,51.699,23.126,51.819,20.54,51.819z"/>
		</g>
		<g>
			<path fill="#6C6C6C" d="M51.354,12.536c0,0-0.006-0.023-0.018-0.067c-0.011-0.045-0.024-0.117-0.075-0.173
				c-0.077-0.132-0.284-0.311-0.593-0.454c-0.616-0.305-1.618-0.556-2.906-0.721c-0.644-0.091-1.362-0.152-2.145-0.197
				c-0.783-0.049-1.631-0.074-2.538-0.078c-1.813-0.022-3.858,0.046-6.085,0.135c-2.227,0.1-4.64,0.196-7.191,0.343
				c-2.548,0.141-5.248,0.27-8.026,0.525c-2.781,0.237-5.65,0.598-8.521,1.183c-1.435,0.293-2.872,0.639-4.278,1.083
				c-0.7,0.228-1.395,0.481-2.051,0.791c-0.329,0.152-0.643,0.329-0.923,0.525c-0.137,0.1-0.262,0.208-0.353,0.318
				c-0.034,0.055-0.088,0.11-0.094,0.155c-0.004,0.022-0.031,0.048-0.02,0.064c0.001,0.009,0.001,0.017,0.001,0.025l-0.002,0.012
				c-0.005-0.021,0.007,0.065-0.013-0.044l0.038,0.135c0.011,0.065,0.032,0.029,0.039,0.046c-0.004,0.003,0.066,0.062,0.109,0.101
				c0.11,0.085,0.251,0.163,0.404,0.231c0.31,0.131,0.647,0.239,0.997,0.319c0.697,0.168,1.423,0.272,2.149,0.355
				c1.453,0.175,2.921,0.255,4.378,0.298c2.915,0.095,5.794,0.048,8.575-0.075c1.391-0.067,2.758-0.132,4.096-0.216
				c1.337-0.095,2.646-0.188,3.92-0.278c2.543-0.201,4.946-0.453,7.163-0.679c2.216-0.238,4.249-0.477,6.037-0.771
				c1.79-0.284,3.339-0.612,4.587-0.978c1.248-0.357,2.201-0.754,2.764-1.147c0.285-0.19,0.46-0.391,0.52-0.542
				c0.043-0.073,0.042-0.135,0.046-0.175c0.005-0.04,0.007-0.061,0.007-0.061L51.354,12.536z M51.475,12.517
				c0,0-0.002,0.026-0.006,0.077c-0.004,0.052-0.005,0.13-0.053,0.218c-0.072,0.185-0.263,0.405-0.556,0.607
				c-0.581,0.419-1.538,0.825-2.776,1.254c-1.244,0.415-2.773,0.859-4.547,1.295c-1.774,0.435-3.789,0.873-6.005,1.257
				c-2.216,0.385-4.631,0.688-7.197,0.93c-1.28,0.126-2.598,0.235-3.948,0.311c-1.349,0.081-2.729,0.151-4.134,0.178
				c-2.809,0.061-5.715,0.062-8.669-0.116c-1.476-0.098-2.964-0.233-4.455-0.468c-0.744-0.125-1.489-0.275-2.231-0.497
				c-0.37-0.108-0.741-0.245-1.108-0.426c-0.183-0.095-0.366-0.205-0.543-0.359c-0.087-0.094-0.171-0.148-0.259-0.315
				c-0.101-0.172-0.096-0.244-0.12-0.336c-0.017-0.132-0.003-0.069-0.006-0.114l0.005-0.057l0.014-0.114
				c0.006-0.081,0.045-0.133,0.069-0.199c0.052-0.136,0.134-0.215,0.207-0.312c0.155-0.17,0.323-0.296,0.493-0.408
				c0.341-0.215,0.69-0.387,1.044-0.531c0.707-0.294,1.427-0.514,2.149-0.714c1.441-0.406,2.893-0.721,4.336-1.012
				c2.887-0.575,5.745-1.043,8.517-1.472c2.776-0.405,5.466-0.753,8.034-0.943c2.566-0.19,5-0.275,7.247-0.243
				c2.247,0.032,4.306,0.156,6.125,0.314c1.819,0.161,3.398,0.368,4.69,0.588c1.288,0.235,2.296,0.488,2.935,0.813
				c0.321,0.157,0.54,0.338,0.645,0.519c0.063,0.089,0.071,0.155,0.082,0.2c0.011,0.045,0.017,0.067,0.017,0.067L51.475,12.517z"/>
		</g>
	</g>
	<g>
		<path fill="#6C6C6C" d="M27.875,42.622l-1.056-10.794c-0.434,0.351-0.864,0.661-1.287,0.928c-0.717,0.453-1.632,0.911-2.719,1.362
			l-0.766,0.318l-0.504-5.156l0.411-0.178c1.485-0.644,2.624-1.355,3.386-2.113c0.75-0.746,1.317-1.647,1.684-2.674l0.131-0.367
			l4.92-0.481l1.816,18.568L27.875,42.622z M27.806,29.293l1.172,11.986l3.57-0.349l-1.577-16.122l-2.931,0.287
			c-0.428,1.05-1.044,1.979-1.835,2.765c-0.796,0.792-1.923,1.526-3.354,2.185l0.255,2.605c0.689-0.314,1.282-0.626,1.769-0.934
			c0.653-0.412,1.333-0.945,2.021-1.582L27.806,29.293z"/>
	</g>
</g>
<g>
	<g>
		<g>
			<path fill="#6C6C6C" d="M88.837,42.957l0.012-0.69c0.027-1.512,0.42-2.987,1.167-4.385c0.746-1.395,2.167-3.031,4.347-5.002
				c1.536-1.393,2.107-2.11,2.315-2.466c0.267-0.456,0.385-0.864,0.351-1.211c-0.035-0.354-0.186-0.625-0.475-0.853
				c-0.295-0.232-0.644-0.322-1.063-0.282c-0.44,0.043-0.772,0.206-1.015,0.497c-0.176,0.212-0.395,0.684-0.434,1.719l-0.022,0.581
				l-6.017,0.103l0.027-0.651c0.059-1.439,0.325-2.612,0.789-3.486c0.476-0.898,1.207-1.631,2.171-2.175
				c0.948-0.535,2.235-0.877,3.934-1.044c1.743-0.171,3.144-0.1,4.184,0.211c1.079,0.324,1.972,0.906,2.656,1.733
				c0.685,0.828,1.087,1.804,1.195,2.9c0.113,1.153-0.118,2.3-0.686,3.408c-0.558,1.087-1.591,2.274-3.16,3.628
				c-0.822,0.695-1.388,1.194-1.689,1.487l6.427-0.631l0.499,5.086L88.837,42.957z M95.683,26.831c0.614,0,1.163,0.186,1.631,0.554
				c0.555,0.437,0.87,1.009,0.938,1.699c0.06,0.61-0.113,1.267-0.513,1.951c-0.372,0.635-1.206,1.537-2.551,2.756
				c-2.045,1.849-3.42,3.42-4.088,4.67c-0.54,1.009-0.868,2.061-0.98,3.135l12.887-1.265l-0.259-2.639l-8.282,0.813l0.964-1.153
				c0.402-0.481,0.762-0.881,1.07-1.188c0.312-0.31,0.905-0.836,1.815-1.606c1.422-1.228,2.388-2.325,2.865-3.255
				c0.465-0.907,0.647-1.799,0.556-2.727c-0.084-0.86-0.385-1.591-0.918-2.237c-0.534-0.645-1.208-1.083-2.062-1.339
				c-0.88-0.263-2.135-0.32-3.711-0.165c-1.504,0.148-2.665,0.447-3.45,0.89c-0.767,0.433-1.32,0.983-1.69,1.681
				c-0.31,0.583-0.512,1.358-0.603,2.31l3.555-0.061c0.092-0.825,0.314-1.442,0.674-1.876c0.453-0.545,1.072-0.859,1.84-0.935
				C95.478,26.835,95.581,26.831,95.683,26.831z"/>
		</g>
	</g>
	<g>
		<g>
			<path fill="#6C6C6C" d="M87.04,51.819c-5.256,0-6.806-0.495-6.898-0.526l-0.385-0.13l-0.169-2.223
				c-3.034-0.746-5.397-3.149-6.088-6.182l0,0l-0.144-0.606l-0.044-0.575l-1.588-10.318l-0.113-1.482l-2.377,0.182
				c-1.327,0.098-2.489-0.896-2.591-2.223l-0.137-1.794c-0.101-1.327,0.896-2.489,2.223-2.591l0.102-0.008l2.124,0.548l0.427-8.048
				l0.964,0.691l-0.196,8.935l-3.418-0.882c-0.605,0.093-1.048,0.64-1,1.261l0.137,1.794c0.049,0.651,0.621,1.142,1.271,1.091
				l3.603-0.274l0.204,2.683l1.588,10.318l0.025,0.335l0.045,0.213c0.458,2.939,2.737,5.28,5.672,5.825l0.464,0.086l0.175,2.296
				c1.201,0.225,5.513,0.762,16.747-0.094c12.147-0.926,16.014-2.069,17.017-2.453l-0.192-2.514l0.383-0.18
				c2.455-1.156,4.047-3.646,4.054-6.344l0.001-0.369l-0.016-0.23l0.007-10.393l-0.204-2.683l3.902-0.298
				c0.652-0.05,1.142-0.62,1.092-1.271l-0.137-1.794c-0.024-0.314-0.17-0.6-0.411-0.807c-0.217-0.186-0.486-0.286-0.765-0.288
				l-4.023,1.776l-0.903-9.065l0.301-0.155l0.204-0.544l1.433,7.963l2.695-1.19l0.105-0.008c1.335-0.097,2.489,0.896,2.591,2.223
				l0.137,1.794c0.101,1.327-0.896,2.489-2.224,2.591l-2.677,0.204l0.115,1.529l-0.007,10.393l-0.007,1.194l0,0
				c-0.204,2.807-1.858,5.354-4.355,6.692l0.188,2.463l-0.298,0.2c-0.246,0.164-2.838,1.641-17.91,2.791
				C93.11,51.699,89.626,51.819,87.04,51.819z"/>
		</g>
		<g>
			<path fill="#6C6C6C" d="M117.854,12.536c0,0-0.006-0.023-0.018-0.067c-0.011-0.045-0.024-0.117-0.075-0.173
				c-0.077-0.132-0.284-0.311-0.593-0.454c-0.616-0.305-1.618-0.556-2.906-0.721c-0.644-0.091-1.362-0.152-2.145-0.197
				c-0.783-0.049-1.631-0.074-2.538-0.078c-1.813-0.022-3.858,0.046-6.085,0.135c-2.227,0.1-4.64,0.196-7.191,0.343
				c-2.548,0.141-5.248,0.27-8.026,0.525c-2.781,0.237-5.65,0.598-8.521,1.183c-1.435,0.293-2.872,0.639-4.278,1.083
				c-0.7,0.228-1.395,0.481-2.051,0.791c-0.329,0.152-0.643,0.329-0.923,0.525c-0.137,0.1-0.262,0.208-0.353,0.318
				c-0.034,0.055-0.088,0.11-0.094,0.155c-0.004,0.022-0.031,0.048-0.02,0.064c0.001,0.009,0.001,0.017,0.001,0.025l-0.002,0.012
				c-0.005-0.021,0.007,0.065-0.013-0.044l0.038,0.135c0.011,0.065,0.032,0.029,0.039,0.046c-0.004,0.003,0.066,0.062,0.109,0.101
				c0.11,0.085,0.251,0.163,0.404,0.231c0.31,0.131,0.647,0.239,0.997,0.319c0.697,0.168,1.423,0.272,2.149,0.355
				c1.453,0.175,2.921,0.255,4.378,0.298c2.914,0.095,5.794,0.048,8.575-0.075c1.391-0.067,2.758-0.132,4.096-0.216
				c1.337-0.095,2.646-0.188,3.92-0.278c2.543-0.201,4.946-0.453,7.163-0.679c2.216-0.238,4.249-0.477,6.037-0.771
				c1.79-0.284,3.339-0.612,4.587-0.978c1.248-0.357,2.201-0.754,2.764-1.147c0.285-0.19,0.46-0.391,0.52-0.542
				c0.043-0.073,0.042-0.135,0.046-0.175c0.005-0.04,0.007-0.061,0.007-0.061L117.854,12.536z M117.975,12.517
				c0,0-0.002,0.026-0.006,0.077c-0.004,0.052-0.005,0.13-0.053,0.218c-0.072,0.185-0.263,0.405-0.556,0.607
				c-0.581,0.419-1.538,0.825-2.776,1.254c-1.244,0.415-2.773,0.859-4.547,1.295c-1.774,0.435-3.789,0.873-6.005,1.257
				c-2.216,0.385-4.631,0.688-7.197,0.93c-1.28,0.126-2.598,0.235-3.948,0.311c-1.349,0.081-2.729,0.151-4.134,0.178
				c-2.809,0.061-5.715,0.062-8.669-0.116c-1.476-0.098-2.964-0.233-4.455-0.468c-0.744-0.125-1.489-0.275-2.231-0.497
				c-0.37-0.108-0.741-0.245-1.108-0.426c-0.183-0.095-0.366-0.205-0.543-0.359c-0.087-0.094-0.171-0.148-0.259-0.315
				c-0.101-0.172-0.096-0.244-0.12-0.336c-0.017-0.132-0.003-0.069-0.006-0.114l0.005-0.057l0.014-0.114
				c0.006-0.081,0.045-0.133,0.069-0.199c0.052-0.136,0.134-0.215,0.207-0.312c0.155-0.17,0.323-0.296,0.493-0.408
				c0.341-0.215,0.69-0.387,1.044-0.531c0.707-0.294,1.427-0.514,2.149-0.714c1.441-0.406,2.893-0.721,4.336-1.012
				c2.887-0.575,5.745-1.043,8.517-1.472c2.776-0.405,5.466-0.753,8.034-0.943c2.566-0.19,5-0.275,7.247-0.243
				c2.247,0.032,4.306,0.156,6.125,0.314c1.819,0.161,3.398,0.368,4.69,0.588c1.288,0.235,2.296,0.488,2.935,0.813
				c0.321,0.157,0.54,0.338,0.645,0.519c0.063,0.089,0.071,0.155,0.082,0.2c0.011,0.045,0.017,0.067,0.017,0.067L117.975,12.517z"/>
		</g>
	</g>
</g>
<g>
	<g>
		<g>
			<path fill="#6C6C6C" d="M162.322,43.005c-1.087,0-1.997-0.114-2.781-0.348c-1.087-0.326-2.065-0.856-2.908-1.577
				c-0.869-0.743-1.609-1.681-2.201-2.787l-0.394-0.736l0.819-0.157c1.766-0.34,3.563-0.68,5.381-1.021l0.523-0.098l0.172,0.504
				c0.281,0.826,0.627,1.405,1.001,1.673c0.37,0.264,0.811,0.371,1.342,0.336c0.555-0.038,0.997-0.248,1.35-0.639
				c0.36-0.399,0.516-0.896,0.48-1.52c-0.037-0.64-0.242-1.102-0.626-1.411c-0.399-0.32-0.927-0.453-1.605-0.409
				c-0.393,0.026-0.949,0.154-1.653,0.382l-0.794,0.256l-0.01-0.834c-0.013-1.196-0.016-2.385-0.008-3.537l0.004-0.65l0.649,0.041
				c0.281,0.018,0.501,0.021,0.657,0.012c0.591-0.04,1.046-0.223,1.391-0.561c0.314-0.307,0.442-0.625,0.404-1.001
				c-0.039-0.365-0.174-0.626-0.424-0.818c-0.262-0.202-0.618-0.284-1.074-0.252c-0.484,0.033-0.854,0.181-1.132,0.453
				c-0.281,0.274-0.472,0.797-0.551,1.512l-0.067,0.598l-0.599-0.054c-1.767-0.159-3.525-0.317-5.272-0.476l-0.753-0.068
				l0.221-0.723c0.481-1.576,1.429-2.873,2.819-3.857c1.323-0.93,3.013-1.459,5.167-1.617c2.459-0.18,4.282,0.136,5.643,0.981
				c1.426,0.891,2.285,2.066,2.556,3.493c0.171,0.911,0.024,1.765-0.437,2.54c-0.238,0.402-0.567,0.785-0.982,1.145
				c0.224,0.067,0.424,0.14,0.603,0.221c0.814,0.364,1.468,0.875,1.943,1.519c0.499,0.679,0.762,1.495,0.782,2.428
				c0.023,1.124-0.332,2.253-1.057,3.356c-0.686,1.042-1.646,1.894-2.853,2.533c-1.178,0.622-2.607,0.987-4.368,1.117
				C163.202,42.987,162.745,43.005,162.322,43.005z M155.948,38.442c0.431,0.658,0.928,1.229,1.484,1.704
				c0.712,0.609,1.54,1.058,2.461,1.334c0.939,0.28,2.147,0.361,3.697,0.246c1.567-0.116,2.874-0.444,3.884-0.978
				c1.022-0.541,1.83-1.256,2.401-2.122c0.585-0.891,0.872-1.784,0.854-2.655c-0.014-0.674-0.197-1.255-0.542-1.725
				c-0.348-0.471-0.838-0.85-1.457-1.127c-0.386-0.174-0.957-0.316-1.698-0.424l-1.754-0.256l1.536-0.885
				c0.829-0.478,1.415-0.999,1.741-1.55c0.309-0.518,0.402-1.069,0.286-1.684c-0.204-1.075-0.876-1.977-1.998-2.677
				c-1.127-0.699-2.721-0.959-4.902-0.798c-1.927,0.142-3.415,0.599-4.55,1.396c-0.94,0.666-1.639,1.502-2.083,2.492
				c1.295,0.117,2.595,0.234,3.899,0.352c0.153-0.721,0.428-1.277,0.82-1.66c0.488-0.477,1.13-0.746,1.906-0.799
				c0.767-0.052,1.405,0.116,1.907,0.503c0.52,0.398,0.823,0.959,0.898,1.666c0.077,0.759-0.18,1.433-0.765,2.006
				c-0.554,0.544-1.285,0.851-2.171,0.91c-0.051,0.003-0.106,0.005-0.165,0.007c-0.002,0.683-0.001,1.377,0.004,2.076
				c0.449-0.116,0.83-0.184,1.154-0.205c0.987-0.066,1.815,0.163,2.456,0.678c0.662,0.533,1.026,1.306,1.083,2.297
				c0.057,0.955-0.21,1.768-0.794,2.415c-0.568,0.631-1.301,0.982-2.178,1.042c-0.824,0.058-1.541-0.133-2.143-0.563
				c-0.504-0.362-0.919-0.945-1.261-1.775C158.607,37.936,157.27,38.189,155.948,38.442z"/>
		</g>
	</g>
	<g>
		<g>
			<path fill="#6C6C6C" d="M153.54,51.819c-5.256,0-6.806-0.495-6.898-0.526l-0.385-0.13l-0.169-2.223
				c-3.034-0.746-5.397-3.149-6.088-6.182l0,0l-0.144-0.606l-0.044-0.575l-1.588-10.318l-0.113-1.482l-2.377,0.182
				c-1.327,0.098-2.489-0.896-2.591-2.223l-0.137-1.794c-0.101-1.327,0.896-2.489,2.223-2.591l0.102-0.008l2.124,0.548l0.427-8.048
				l0.964,0.691l-0.196,8.935l-3.418-0.882c-0.605,0.093-1.048,0.64-1,1.261l0.137,1.794c0.049,0.651,0.621,1.142,1.271,1.091
				l3.603-0.274l0.204,2.683l1.588,10.318l0.025,0.335l0.045,0.213c0.458,2.939,2.737,5.28,5.672,5.825l0.464,0.086l0.175,2.296
				c1.201,0.225,5.513,0.762,16.747-0.094c12.147-0.926,16.014-2.069,17.017-2.453l-0.192-2.514l0.383-0.18
				c2.455-1.156,4.047-3.646,4.054-6.344l0.001-0.369l-0.016-0.23l0.007-10.393l-0.204-2.683l3.902-0.298
				c0.652-0.05,1.142-0.62,1.092-1.271l-0.137-1.794c-0.024-0.314-0.17-0.6-0.411-0.807c-0.217-0.186-0.486-0.286-0.765-0.288
				l-4.023,1.776l-0.903-9.065l0.301-0.155l0.204-0.544l1.433,7.963l2.695-1.19l0.105-0.008c1.335-0.097,2.489,0.896,2.591,2.223
				l0.137,1.794c0.101,1.327-0.896,2.489-2.224,2.591l-2.677,0.204l0.115,1.529l-0.007,10.393l-0.007,1.194l0,0
				c-0.204,2.807-1.858,5.354-4.355,6.692l0.188,2.463l-0.298,0.2c-0.246,0.164-2.838,1.641-17.91,2.791
				C159.61,51.699,156.126,51.819,153.54,51.819z"/>
		</g>
		<g>
			<path fill="#6C6C6C" d="M184.354,12.536c0,0-0.006-0.023-0.018-0.067c-0.011-0.045-0.024-0.117-0.075-0.173
				c-0.077-0.132-0.284-0.311-0.593-0.454c-0.616-0.305-1.618-0.556-2.906-0.721c-0.644-0.091-1.362-0.152-2.145-0.197
				c-0.783-0.049-1.631-0.074-2.538-0.078c-1.813-0.022-3.858,0.046-6.085,0.135c-2.227,0.1-4.64,0.196-7.191,0.343
				c-2.548,0.141-5.248,0.27-8.026,0.525c-2.781,0.237-5.65,0.598-8.521,1.183c-1.435,0.293-2.872,0.639-4.278,1.083
				c-0.7,0.228-1.395,0.481-2.051,0.791c-0.329,0.152-0.643,0.329-0.923,0.525c-0.137,0.1-0.262,0.208-0.353,0.318
				c-0.034,0.055-0.088,0.11-0.094,0.155c-0.004,0.022-0.031,0.048-0.02,0.064c0.001,0.009,0.001,0.017,0.001,0.025l-0.002,0.012
				c-0.005-0.021,0.007,0.065-0.013-0.044l0.038,0.135c0.011,0.065,0.032,0.029,0.039,0.046c-0.004,0.003,0.066,0.062,0.109,0.101
				c0.11,0.085,0.251,0.163,0.404,0.231c0.31,0.131,0.647,0.239,0.997,0.319c0.697,0.168,1.423,0.272,2.149,0.355
				c1.453,0.175,2.921,0.255,4.378,0.298c2.915,0.095,5.794,0.048,8.575-0.075c1.391-0.067,2.758-0.132,4.096-0.216
				c1.337-0.095,2.646-0.188,3.92-0.278c2.543-0.201,4.946-0.453,7.163-0.679c2.216-0.238,4.249-0.477,6.037-0.771
				c1.79-0.284,3.339-0.612,4.587-0.978c1.248-0.357,2.201-0.754,2.764-1.147c0.285-0.19,0.46-0.391,0.52-0.542
				c0.043-0.073,0.042-0.135,0.046-0.175c0.005-0.04,0.007-0.061,0.007-0.061L184.354,12.536z M184.475,12.517
				c0,0-0.002,0.026-0.006,0.077c-0.004,0.052-0.005,0.13-0.053,0.218c-0.072,0.185-0.263,0.405-0.556,0.607
				c-0.581,0.419-1.538,0.825-2.776,1.254c-1.244,0.415-2.773,0.859-4.547,1.295c-1.774,0.435-3.789,0.873-6.005,1.257
				c-2.216,0.385-4.631,0.688-7.197,0.93c-1.28,0.126-2.598,0.235-3.948,0.311c-1.349,0.081-2.729,0.151-4.134,0.178
				c-2.809,0.061-5.715,0.062-8.669-0.116c-1.476-0.098-2.964-0.233-4.455-0.468c-0.744-0.125-1.489-0.275-2.231-0.497
				c-0.37-0.108-0.741-0.245-1.108-0.426c-0.183-0.095-0.366-0.205-0.543-0.359c-0.087-0.094-0.171-0.148-0.259-0.315
				c-0.101-0.172-0.096-0.244-0.12-0.336c-0.017-0.132-0.003-0.069-0.006-0.114l0.005-0.057l0.014-0.114
				c0.006-0.081,0.045-0.133,0.069-0.199c0.052-0.136,0.134-0.215,0.207-0.312c0.155-0.17,0.323-0.296,0.493-0.408
				c0.341-0.215,0.69-0.387,1.044-0.531c0.707-0.294,1.427-0.514,2.149-0.714c1.441-0.406,2.893-0.721,4.336-1.012
				c2.887-0.575,5.745-1.043,8.517-1.472c2.776-0.405,5.466-0.753,8.034-0.943c2.566-0.19,5-0.275,7.247-0.243
				c2.247,0.032,4.306,0.156,6.125,0.314c1.819,0.161,3.398,0.368,4.69,0.588c1.288,0.235,2.296,0.488,2.935,0.813
				c0.321,0.157,0.54,0.338,0.645,0.519c0.063,0.089,0.071,0.155,0.082,0.2c0.011,0.045,0.017,0.067,0.017,0.067L184.475,12.517z"/>
		</g>
	</g>
</g>
<g>
	<g>
		<path fill="#6C6C6C" d="M53.089,102.409c0,0-0.014,0.137-0.042,0.4c-0.031,0.263-0.057,0.654-0.15,1.162
			c-0.158,1.015-0.469,2.5-1.182,4.283c-0.349,0.893-0.809,1.854-1.4,2.847c-0.581,0.998-1.285,2.037-2.143,3.063
			c-1.719,2.043-4.037,4.064-6.957,5.618c-2.908,1.555-6.416,2.641-10.217,2.821c-0.948,0.06-1.913,0.038-2.886-0.015
			c-0.513-0.041-0.969-0.112-1.461-0.167c-0.242-0.03-0.485-0.059-0.728-0.089c-0.122-0.016-0.243-0.027-0.366-0.047l-0.368-0.081
			c-0.98-0.223-1.987-0.404-2.943-0.763l-0.729-0.24c-0.245-0.078-0.489-0.157-0.722-0.27c-0.472-0.208-0.945-0.417-1.421-0.627
			c-3.744-1.802-7.132-4.737-9.408-8.494c-0.316-0.45-0.544-0.951-0.8-1.439c-0.249-0.491-0.52-0.973-0.702-1.496
			c-0.199-0.515-0.416-1.025-0.6-1.548l-0.457-1.601c-0.037-0.134-0.079-0.267-0.111-0.402l-0.074-0.41l-0.149-0.822l-0.148-0.823
			c-0.034-0.276-0.047-0.555-0.072-0.833c-0.033-0.556-0.112-1.112-0.106-1.67l0.038-1.675l0.005-0.21l0.001-0.052
			c0.002-0.029-0.002-0.01,0.004-0.077l0.013-0.102l0.05-0.407l0.1-0.813l0.1-0.813l0.184-0.827l0.188-0.827
			c0.064-0.275,0.117-0.555,0.217-0.815l0.537-1.587c0.827-2.075,1.954-4.016,3.328-5.75c1.409-1.707,3.065-3.174,4.86-4.389
			c1.811-1.201,3.786-2.067,5.781-2.736c0.51-0.13,1.018-0.259,1.524-0.388c0.254-0.059,0.502-0.141,0.759-0.179l0.767-0.119
			c0.511-0.073,1.017-0.17,1.525-0.222c0.51-0.03,1.017-0.06,1.522-0.09c0.252-0.013,0.504-0.033,0.755-0.04
			c0.251,0.008,0.501,0.017,0.75,0.026c0.499,0.018,0.995,0.035,1.488,0.052c0.517,0.032,0.963,0.096,1.449,0.151
			c0.484,0.082,0.976,0.139,1.443,0.241c1.887,0.364,3.677,0.934,5.33,1.657c1.653,0.726,3.157,1.623,4.505,2.603
			c2.7,1.965,4.738,4.31,6.129,6.612c0.699,1.151,1.239,2.293,1.658,3.375c0.221,0.537,0.384,1.07,0.55,1.575
			c0.135,0.514,0.285,0.999,0.374,1.472c0.408,1.881,0.484,3.398,0.471,4.424c0.009,0.514-0.03,0.907-0.042,1.172
			C53.097,102.271,53.089,102.409,53.089,102.409z M52.967,102.397c0,0,0.006-0.135,0.017-0.399c0.008-0.264,0.04-0.654,0.024-1.165
			c-0.009-1.017-0.089-2.525-0.547-4.373c-0.437-1.847-1.3-4.024-2.756-6.223c-1.452-2.195-3.531-4.389-6.216-6.172
			c-1.339-0.895-2.828-1.677-4.428-2.332c-1.607-0.641-3.332-1.134-5.138-1.456c-3.612-0.632-7.571-0.502-11.393,0.629
			c-1.889,0.623-3.762,1.422-5.482,2.543c-1.699,1.14-3.287,2.496-4.641,4.094c-1.32,1.623-2.413,3.446-3.226,5.406l-0.53,1.501
			c-0.101,0.249-0.15,0.506-0.213,0.761l-0.186,0.766l-0.185,0.768l-0.111,0.812L7.844,98.37l-0.055,0.406l-0.014,0.101
			c0.004-0.033,0,0.02,0.001,0.025l-0.002,0.05l-0.007,0.2l-0.053,1.601c-0.012,0.534,0.06,1.065,0.085,1.598
			c0.021,0.266,0.03,0.533,0.06,0.798l0.134,0.788l0.133,0.788l0.067,0.394c0.03,0.13,0.069,0.257,0.103,0.386l0.421,1.54
			c0.171,0.503,0.375,0.994,0.56,1.491c0.169,0.505,0.425,0.97,0.659,1.444c0.24,0.471,0.453,0.957,0.754,1.392
			c2.15,3.637,5.387,6.507,8.996,8.291c0.459,0.208,0.916,0.416,1.371,0.623c0.224,0.113,0.461,0.192,0.697,0.269l0.705,0.24
			c0.93,0.361,1.888,0.54,2.827,0.767l0.352,0.083c0.12,0.021,0.243,0.034,0.364,0.051c0.243,0.032,0.485,0.064,0.727,0.096
			c0.476,0.059,0.979,0.14,1.425,0.179c0.949,0.064,1.89,0.106,2.817,0.063c3.717-0.11,7.173-1.116,10.075-2.572
			c2.916-1.456,5.25-3.415,6.985-5.416c1.733-2.012,2.877-4.064,3.566-5.838c0.708-1.771,1.019-3.25,1.175-4.254
			c0.092-0.501,0.118-0.895,0.149-1.157C52.953,102.532,52.967,102.397,52.967,102.397z"/>
	</g>
	<g>
		<path fill="#6C6C6C" d="M29.96,120.302c-0.581,0-1.171-0.023-1.753-0.069c-11.354-0.89-19.571-10.208-18.708-21.214
			c0.791-10.092,9.364-17.702,19.941-17.702c0.598,0,1.208,0.024,1.813,0.072c11.615,0.91,20.388,10.273,19.557,20.869
			C50.016,112.376,40.858,120.302,29.96,120.302z M29.44,82.546c-10.092,0-17.963,6.968-18.716,16.569
			c-0.809,10.318,6.913,19.056,17.579,19.893c0.55,0.043,1.108,0.065,1.657,0.065c10.261,0,18.881-7.428,19.624-16.911
			c0.778-9.921-7.489-18.69-18.428-19.548C30.584,82.569,30.007,82.546,29.44,82.546z"/>
	</g>
	<g>
		<path fill="#6C6C6C" d="M37.26,78.518L37.26,78.518c-0.175,0-0.353-0.03-0.528-0.088c-0.028-0.01-2.885-0.951-5.062-1.121
			c-0.296-0.023-0.624-0.035-0.972-0.035c-2.248,0-4.786,0.482-4.811,0.487c-0.537,0.105-1.058-0.055-1.398-0.422
			c-0.28-0.303-0.416-0.718-0.38-1.167l0.18-2.294c0.034-0.429-0.25-1.054-0.595-1.311c-0.128-0.096-1.249-0.964-1.163-2.048
			c0.171-2.179,4.007-3.154,7.734-3.154c0.615,0,1.246,0.025,1.876,0.074c4.514,0.354,9.207,2.065,9.013,4.54
			c-0.085,1.084-1.327,1.767-1.468,1.841c-0.381,0.2-0.758,0.773-0.792,1.202l-0.163,2.081
			C38.667,77.923,38.048,78.518,37.26,78.518z M30.698,76.045c0.381,0,0.74,0.013,1.069,0.039c2.328,0.182,5.231,1.139,5.353,1.18
			c0.05,0.017,0.097,0.025,0.14,0.025c0.185,0,0.236-0.153,0.246-0.282l0.163-2.081c0.067-0.852,0.688-1.795,1.445-2.194
			c0.327-0.174,0.793-0.568,0.815-0.849c0.084-1.079-2.874-2.826-7.884-3.219c-0.598-0.047-1.197-0.07-1.78-0.07
			c-3.922,0-6.433,1.049-6.509,2.021c-0.024,0.306,0.434,0.788,0.672,0.966c0.686,0.511,1.153,1.54,1.085,2.393l-0.18,2.293
			c-0.008,0.104,0.012,0.188,0.058,0.237c0.073,0.078,0.177,0.067,0.264,0.05C25.763,76.534,28.334,76.045,30.698,76.045z"/>
	</g>
	<g>
		<path fill="#6C6C6C" d="M31.811,100.538c-0.091,1.154-1.178,1.826-2.447,1.727c-1.269-0.099-2.147-0.925-2.056-2.08
			c0.091-1.154,1.101-2.017,2.37-1.917C30.947,98.367,31.902,99.384,31.811,100.538z"/>
		<path fill="#6C6C6C" d="M29.611,102.889c-0.097,0-0.195-0.004-0.294-0.012c-0.766-0.06-1.449-0.351-1.922-0.82
			c-0.508-0.503-0.756-1.185-0.698-1.92c0.117-1.499,1.437-2.609,3.03-2.482c0.766,0.06,1.469,0.391,1.976,0.931
			c0.523,0.556,0.779,1.267,0.722,1.999C32.318,101.942,31.161,102.889,29.611,102.889z M29.479,98.874
			c-0.842,0-1.497,0.572-1.559,1.359c-0.03,0.379,0.084,0.699,0.338,0.95c0.267,0.265,0.676,0.431,1.153,0.468
			c0.067,0.005,0.133,0.008,0.198,0.008c0.745,0,1.525-0.362,1.588-1.17c0.03-0.384-0.109-0.76-0.392-1.062
			c-0.298-0.317-0.716-0.512-1.177-0.548C29.579,98.876,29.529,98.874,29.479,98.874z"/>
	</g>
	<g>
		<polygon fill="#6C6C6C" points="28.954,100.222 30.518,88.144 30.18,100.318 		"/>
	</g>
	<g>
		<polygon fill="#6C6C6C" points="29.615,99.657 45.526,101.521 29.519,100.883 		"/>
	</g>
	<g>
		<polygon fill="#6C6C6C" points="31.817,82.049 30.927,85.539 30.592,81.953 		"/>
	</g>
	<g>
		<polygon fill="#6C6C6C" points="27.643,119.573 28.494,116.577 28.868,119.669 		"/>
	</g>
	<g>
		<polygon fill="#6C6C6C" points="50.165,102.413 46.675,101.523 50.261,101.188 		"/>
	</g>
	<g>
		<polygon fill="#6C6C6C" points="10.192,98.046 13.596,98.93 10.096,99.271 		"/>
	</g>
</g>
<g>
	<g>
		<path fill="#6C6C6C" d="M119.315,102.409c0,0-0.015,0.137-0.043,0.4c-0.031,0.263-0.057,0.654-0.15,1.162
			c-0.158,1.015-0.469,2.5-1.182,4.283c-0.349,0.893-0.809,1.854-1.4,2.847c-0.581,0.998-1.284,2.037-2.142,3.063
			c-1.719,2.043-4.037,4.064-6.957,5.618c-2.908,1.555-6.416,2.641-10.217,2.821c-0.948,0.06-1.913,0.038-2.886-0.015
			c-0.514-0.041-0.969-0.112-1.461-0.167c-0.242-0.03-0.484-0.059-0.728-0.089c-0.122-0.016-0.243-0.027-0.365-0.047l-0.368-0.081
			c-0.98-0.223-1.987-0.404-2.943-0.763l-0.729-0.24c-0.245-0.078-0.489-0.157-0.722-0.27c-0.472-0.208-0.946-0.417-1.421-0.627
			c-3.744-1.802-7.132-4.737-9.408-8.494c-0.316-0.45-0.544-0.951-0.8-1.439c-0.249-0.491-0.519-0.973-0.702-1.496
			c-0.199-0.515-0.416-1.025-0.6-1.548l-0.457-1.601c-0.037-0.134-0.079-0.267-0.111-0.402l-0.074-0.41L73.3,104.09l-0.148-0.823
			c-0.034-0.276-0.048-0.555-0.072-0.833c-0.033-0.556-0.112-1.112-0.106-1.67l0.038-1.675l0.005-0.21l0.001-0.052
			c0.002-0.029-0.002-0.01,0.004-0.077l0.013-0.102l0.05-0.407l0.1-0.813l0.1-0.813l0.184-0.827l0.188-0.827
			c0.064-0.275,0.117-0.555,0.217-0.815l0.537-1.587c0.827-2.075,1.954-4.016,3.328-5.75c1.409-1.707,3.065-3.174,4.86-4.389
			c1.811-1.201,3.786-2.067,5.781-2.736c0.51-0.13,1.018-0.259,1.524-0.388c0.254-0.059,0.502-0.141,0.759-0.179l0.767-0.119
			c0.511-0.073,1.017-0.17,1.525-0.222c0.51-0.03,1.017-0.06,1.522-0.09c0.252-0.013,0.504-0.033,0.755-0.04
			c0.251,0.008,0.501,0.017,0.75,0.026c0.499,0.018,0.995,0.035,1.488,0.052c0.517,0.032,0.963,0.096,1.448,0.151
			c0.484,0.082,0.976,0.139,1.443,0.241c1.887,0.364,3.677,0.934,5.33,1.657c1.653,0.726,3.157,1.623,4.505,2.603
			c2.7,1.965,4.738,4.31,6.129,6.612c0.699,1.151,1.238,2.293,1.658,3.375c0.221,0.537,0.384,1.07,0.55,1.575
			c0.136,0.514,0.285,0.999,0.374,1.472c0.408,1.881,0.484,3.398,0.471,4.424c0.009,0.514-0.03,0.907-0.042,1.172
			C119.323,102.271,119.315,102.409,119.315,102.409z M119.192,102.397c0,0,0.006-0.135,0.017-0.399
			c0.008-0.264,0.04-0.654,0.024-1.165c-0.009-1.017-0.089-2.525-0.547-4.373c-0.437-1.847-1.3-4.024-2.755-6.223
			c-1.452-2.195-3.531-4.389-6.217-6.172c-1.339-0.895-2.828-1.677-4.428-2.332c-1.607-0.641-3.332-1.134-5.138-1.456
			c-3.612-0.632-7.571-0.502-11.393,0.629c-1.889,0.623-3.762,1.422-5.482,2.543c-1.699,1.14-3.287,2.496-4.641,4.094
			c-1.32,1.623-2.413,3.446-3.225,5.406l-0.53,1.501c-0.101,0.249-0.15,0.506-0.213,0.761l-0.186,0.766l-0.185,0.768l-0.111,0.812
			L74.07,98.37l-0.055,0.406l-0.014,0.101c0.004-0.033,0,0.02,0.001,0.025L74,98.952l-0.007,0.2l-0.053,1.601
			c-0.012,0.534,0.06,1.065,0.085,1.598c0.021,0.266,0.03,0.533,0.06,0.798l0.134,0.788l0.133,0.788l0.067,0.394
			c0.03,0.13,0.069,0.257,0.103,0.386l0.421,1.54c0.171,0.503,0.375,0.994,0.56,1.491c0.169,0.505,0.425,0.97,0.659,1.444
			c0.24,0.471,0.453,0.957,0.754,1.392c2.15,3.637,5.387,6.507,8.996,8.291c0.459,0.208,0.916,0.416,1.371,0.623
			c0.224,0.113,0.461,0.192,0.697,0.269l0.705,0.24c0.93,0.361,1.888,0.54,2.827,0.767l0.352,0.083
			c0.12,0.021,0.243,0.034,0.364,0.051c0.243,0.032,0.485,0.064,0.727,0.096c0.476,0.059,0.979,0.14,1.425,0.179
			c0.949,0.064,1.89,0.106,2.817,0.063c3.717-0.11,7.173-1.116,10.075-2.572c2.915-1.456,5.25-3.415,6.985-5.416
			c1.733-2.012,2.877-4.064,3.566-5.838c0.708-1.771,1.019-3.25,1.175-4.254c0.092-0.501,0.118-0.895,0.149-1.157
			C119.178,102.532,119.192,102.397,119.192,102.397z"/>
	</g>
	<g>
		<path fill="#6C6C6C" d="M96.186,120.302c-0.582,0-1.171-0.023-1.753-0.069c-11.354-0.89-19.571-10.208-18.708-21.214
			c0.791-10.092,9.364-17.702,19.941-17.702c0.598,0,1.208,0.024,1.813,0.072c11.614,0.91,20.388,10.273,19.557,20.869
			C116.242,112.376,107.084,120.302,96.186,120.302z M95.665,82.546c-10.092,0-17.963,6.968-18.716,16.569
			c-0.809,10.318,6.913,19.056,17.579,19.893c0.55,0.043,1.108,0.065,1.657,0.065c10.261,0,18.881-7.428,19.624-16.911
			c0.777-9.921-7.49-18.691-18.428-19.548C96.81,82.569,96.232,82.546,95.665,82.546z"/>
	</g>
	<g>
		<path fill="#6C6C6C" d="M103.485,78.518L103.485,78.518c-0.175,0-0.352-0.03-0.528-0.088c-0.028-0.01-2.885-0.951-5.062-1.121
			c-0.296-0.023-0.624-0.035-0.972-0.035c-2.248,0-4.786,0.482-4.811,0.487c-0.538,0.105-1.058-0.055-1.398-0.423
			c-0.28-0.303-0.416-0.718-0.38-1.167l0.18-2.293c0.034-0.429-0.25-1.054-0.595-1.311c-0.128-0.096-1.248-0.964-1.163-2.047
			c0.171-2.179,4.008-3.154,7.734-3.154c0.615,0,1.246,0.025,1.876,0.074c4.514,0.354,9.207,2.065,9.013,4.54
			c-0.085,1.084-1.327,1.767-1.468,1.841c-0.381,0.2-0.758,0.773-0.792,1.202l-0.163,2.081
			C104.892,77.923,104.273,78.518,103.485,78.518z M96.923,76.045c0.381,0,0.74,0.013,1.069,0.039
			c2.327,0.182,5.231,1.139,5.353,1.18c0.05,0.017,0.097,0.025,0.14,0.025c0.185,0,0.236-0.153,0.246-0.282l0.163-2.081
			c0.067-0.852,0.688-1.795,1.445-2.194c0.327-0.174,0.793-0.568,0.815-0.849c0.084-1.079-2.874-2.826-7.884-3.219
			c-0.598-0.047-1.197-0.07-1.78-0.07c-3.923,0-6.433,1.049-6.509,2.021c-0.022,0.282,0.377,0.743,0.674,0.967
			c0.684,0.51,1.151,1.538,1.084,2.391l-0.18,2.293c-0.008,0.104,0.012,0.188,0.057,0.236c0.073,0.078,0.178,0.068,0.264,0.051
			C91.989,76.534,94.559,76.045,96.923,76.045z"/>
	</g>
	<g>
		<path fill="#6C6C6C" d="M98.037,100.538c-0.091,1.154-1.178,1.826-2.447,1.727c-1.269-0.099-2.147-0.925-2.056-2.08
			c0.091-1.154,1.101-2.017,2.37-1.917C97.172,98.367,98.127,99.384,98.037,100.538z"/>
		<path fill="#6C6C6C" d="M95.836,102.889c-0.097,0-0.195-0.004-0.294-0.012c-0.766-0.06-1.449-0.351-1.922-0.82
			c-0.508-0.503-0.756-1.185-0.698-1.92c0.118-1.499,1.44-2.609,3.03-2.482c1.605,0.126,2.815,1.441,2.698,2.931
			C98.543,101.942,97.386,102.889,95.836,102.889z M95.705,98.874c-0.841,0-1.497,0.572-1.559,1.359
			c-0.03,0.379,0.084,0.699,0.338,0.95c0.267,0.265,0.677,0.431,1.154,0.468c0.067,0.005,0.133,0.008,0.198,0.008
			c0.745,0,1.525-0.362,1.588-1.17c0.064-0.814-0.64-1.537-1.569-1.61C95.804,98.876,95.754,98.874,95.705,98.874z"/>
	</g>
	<g>
		<polygon fill="#6C6C6C" points="95.18,100.222 96.743,88.144 96.405,100.318 		"/>
	</g>
	<g>
		<polygon fill="#6C6C6C" points="96.464,99.426 94.6,115.337 95.239,99.33 		"/>
	</g>
	<g>
		<polygon fill="#6C6C6C" points="98.043,82.049 97.153,85.539 96.818,81.953 		"/>
	</g>
	<g>
		<polygon fill="#6C6C6C" points="93.868,119.573 94.719,116.577 95.093,119.669 		"/>
	</g>
	<g>
		<polygon fill="#6C6C6C" points="116.391,102.413 112.901,101.523 116.487,101.188 		"/>
	</g>
	<g>
		<polygon fill="#6C6C6C" points="76.417,98.046 79.821,98.93 76.321,99.271 		"/>
	</g>
</g>
<g>
	<g>
		<path fill="#6C6C6C" d="M185.358,102.409c0,0-0.015,0.137-0.043,0.4c-0.031,0.263-0.057,0.654-0.15,1.162
			c-0.158,1.015-0.469,2.5-1.182,4.283c-0.349,0.893-0.809,1.854-1.4,2.847c-0.581,0.998-1.284,2.037-2.142,3.063
			c-1.719,2.043-4.037,4.064-6.957,5.618c-2.908,1.555-6.416,2.641-10.217,2.821c-0.948,0.06-1.913,0.038-2.886-0.015
			c-0.514-0.041-0.969-0.112-1.461-0.167c-0.242-0.03-0.484-0.059-0.728-0.089c-0.122-0.016-0.243-0.027-0.365-0.047l-0.368-0.081
			c-0.98-0.223-1.987-0.404-2.943-0.763l-0.729-0.24c-0.245-0.078-0.489-0.157-0.722-0.27c-0.472-0.208-0.945-0.417-1.421-0.627
			c-3.744-1.802-7.132-4.737-9.408-8.494c-0.316-0.45-0.544-0.951-0.8-1.439c-0.249-0.491-0.519-0.973-0.702-1.496
			c-0.199-0.515-0.416-1.025-0.6-1.548l-0.457-1.601c-0.037-0.134-0.079-0.267-0.111-0.402l-0.074-0.41l-0.149-0.822l-0.148-0.823
			c-0.034-0.276-0.048-0.555-0.072-0.833c-0.033-0.556-0.112-1.112-0.106-1.67l0.038-1.675l0.005-0.21l0.001-0.052
			c0.002-0.029-0.002-0.01,0.004-0.077l0.013-0.102l0.05-0.407l0.1-0.813l0.1-0.813l0.184-0.827l0.188-0.827
			c0.064-0.275,0.117-0.555,0.217-0.815l0.537-1.587c0.827-2.075,1.954-4.016,3.328-5.75c1.409-1.707,3.065-3.174,4.86-4.389
			c1.811-1.201,3.786-2.067,5.781-2.736c0.51-0.13,1.018-0.259,1.524-0.388c0.254-0.059,0.502-0.141,0.759-0.179l0.767-0.119
			c0.511-0.073,1.017-0.17,1.525-0.222c0.51-0.03,1.017-0.06,1.522-0.09c0.252-0.013,0.504-0.033,0.755-0.04
			c0.251,0.008,0.501,0.017,0.75,0.026c0.499,0.018,0.995,0.035,1.488,0.052c0.517,0.032,0.963,0.096,1.448,0.151
			c0.484,0.082,0.975,0.139,1.443,0.241c1.887,0.364,3.677,0.934,5.33,1.657c1.653,0.726,3.157,1.623,4.505,2.603
			c2.7,1.965,4.738,4.31,6.129,6.612c0.699,1.151,1.238,2.293,1.658,3.375c0.221,0.537,0.384,1.07,0.55,1.575
			c0.136,0.514,0.285,0.999,0.374,1.472c0.408,1.881,0.484,3.398,0.471,4.424c0.009,0.514-0.03,0.907-0.042,1.172
			C185.366,102.271,185.358,102.409,185.358,102.409z M185.235,102.397c0,0,0.006-0.135,0.017-0.399
			c0.008-0.264,0.04-0.654,0.024-1.165c-0.009-1.017-0.089-2.525-0.547-4.373c-0.437-1.847-1.3-4.024-2.755-6.223
			c-1.452-2.195-3.531-4.389-6.217-6.172c-1.339-0.895-2.828-1.677-4.428-2.332c-1.607-0.641-3.332-1.134-5.138-1.456
			c-3.612-0.632-7.571-0.502-11.393,0.629c-1.889,0.623-3.762,1.422-5.482,2.543c-1.699,1.14-3.287,2.496-4.641,4.094
			c-1.32,1.623-2.413,3.446-3.225,5.406l-0.53,1.501c-0.101,0.249-0.15,0.506-0.213,0.761l-0.186,0.766l-0.185,0.768l-0.111,0.812
			l-0.111,0.812l-0.055,0.406l-0.014,0.101c0.004-0.033,0,0.02,0.001,0.025l-0.002,0.05l-0.007,0.2l-0.053,1.601
			c-0.012,0.534,0.06,1.065,0.085,1.598c0.021,0.266,0.03,0.533,0.06,0.798l0.134,0.788l0.133,0.788l0.067,0.394
			c0.03,0.13,0.069,0.257,0.103,0.386l0.421,1.54c0.171,0.503,0.375,0.994,0.56,1.491c0.169,0.505,0.425,0.97,0.659,1.444
			c0.24,0.471,0.453,0.957,0.754,1.392c2.15,3.637,5.387,6.507,8.996,8.291c0.459,0.208,0.916,0.416,1.371,0.623
			c0.224,0.113,0.461,0.192,0.697,0.269l0.705,0.24c0.93,0.361,1.888,0.54,2.827,0.767l0.352,0.083
			c0.12,0.021,0.243,0.034,0.364,0.051c0.243,0.032,0.485,0.064,0.727,0.096c0.476,0.059,0.979,0.14,1.425,0.179
			c0.949,0.064,1.89,0.106,2.817,0.063c3.717-0.11,7.173-1.116,10.075-2.572c2.915-1.456,5.25-3.415,6.985-5.416
			c1.733-2.012,2.878-4.064,3.566-5.838c0.708-1.771,1.018-3.25,1.175-4.254c0.092-0.501,0.118-0.895,0.149-1.157
			C185.221,102.532,185.235,102.397,185.235,102.397z"/>
	</g>
	<g>
		<path fill="#6C6C6C" d="M162.229,120.302c-0.582,0-1.171-0.023-1.753-0.069c-11.354-0.89-19.571-10.208-18.708-21.214
			c0.791-10.092,9.364-17.702,19.941-17.702c0.598,0,1.208,0.024,1.813,0.072c11.614,0.91,20.388,10.273,19.557,20.869
			C182.285,112.376,173.127,120.302,162.229,120.302z M161.709,82.546c-10.092,0-17.963,6.968-18.716,16.569
			c-0.809,10.318,6.913,19.056,17.579,19.893c0.55,0.043,1.108,0.065,1.657,0.065c10.261,0,18.881-7.428,19.624-16.911
			c0.777-9.921-7.49-18.691-18.428-19.548C162.853,82.569,162.275,82.546,161.709,82.546z"/>
	</g>
	<g>
		<path fill="#6C6C6C" d="M169.528,78.518L169.528,78.518c-0.175,0-0.352-0.03-0.528-0.088c-0.028-0.01-2.885-0.951-5.062-1.121
			c-0.296-0.023-0.624-0.035-0.973-0.035c-2.248,0-4.786,0.482-4.811,0.487c-0.538,0.105-1.058-0.055-1.398-0.423
			c-0.28-0.303-0.416-0.718-0.38-1.167l0.18-2.293c0.034-0.429-0.25-1.054-0.595-1.311c-0.128-0.096-1.248-0.964-1.163-2.047
			c0.171-2.179,4.008-3.154,7.734-3.154c0.615,0,1.246,0.025,1.876,0.074c4.514,0.354,9.207,2.065,9.013,4.54
			c-0.085,1.084-1.327,1.767-1.468,1.841c-0.381,0.2-0.758,0.773-0.792,1.202l-0.163,2.081
			C170.935,77.923,170.316,78.518,169.528,78.518z M162.966,76.045c0.381,0,0.74,0.013,1.069,0.039
			c2.327,0.182,5.231,1.139,5.353,1.18c0.05,0.017,0.097,0.025,0.14,0.025c0.185,0,0.236-0.153,0.246-0.282l0.163-2.081
			c0.067-0.852,0.688-1.795,1.445-2.194c0.327-0.174,0.793-0.568,0.815-0.849c0.084-1.079-2.874-2.826-7.884-3.219
			c-0.598-0.047-1.197-0.07-1.78-0.07c-3.923,0-6.433,1.049-6.509,2.021c-0.022,0.282,0.377,0.743,0.674,0.967
			c0.684,0.51,1.151,1.538,1.084,2.391l-0.18,2.293c-0.008,0.104,0.012,0.188,0.057,0.236c0.072,0.078,0.177,0.068,0.264,0.051
			C158.032,76.534,160.602,76.045,162.966,76.045z"/>
	</g>
	<g>
		<path fill="#6C6C6C" d="M164.08,100.538c-0.091,1.154-1.178,1.826-2.447,1.727c-1.269-0.099-2.147-0.925-2.056-2.08
			c0.091-1.154,1.101-2.017,2.37-1.917S164.17,99.384,164.08,100.538z"/>
		<path fill="#6C6C6C" d="M161.879,102.889c-0.097,0-0.195-0.004-0.294-0.012c-0.766-0.06-1.449-0.351-1.922-0.82
			c-0.508-0.503-0.756-1.185-0.698-1.92c0.118-1.499,1.44-2.609,3.03-2.482c1.605,0.126,2.815,1.441,2.698,2.931
			C164.586,101.942,163.43,102.889,161.879,102.889z M161.748,98.874c-0.841,0-1.497,0.572-1.559,1.359
			c-0.03,0.379,0.084,0.699,0.338,0.95c0.267,0.265,0.677,0.431,1.154,0.468c0.067,0.005,0.133,0.008,0.198,0.008
			c0.745,0,1.525-0.362,1.588-1.17c0.064-0.814-0.64-1.537-1.569-1.61C161.847,98.876,161.797,98.874,161.748,98.874z"/>
	</g>
	<g>
		<polygon fill="#6C6C6C" points="161.223,100.222 162.786,88.144 162.448,100.318 		"/>
	</g>
	<g>
		<polygon fill="#6C6C6C" points="162.595,100.793 146.684,98.93 162.691,99.568 		"/>
	</g>
	<g>
		<polygon fill="#6C6C6C" points="164.086,82.049 163.196,85.539 162.861,81.953 		"/>
	</g>
	<g>
		<polygon fill="#6C6C6C" points="159.911,119.573 160.762,116.577 161.136,119.669 		"/>
	</g>
	<g>
		<polygon fill="#6C6C6C" points="182.434,102.413 178.944,101.523 182.53,101.188 		"/>
	</g>
	<g>
		<polygon fill="#6C6C6C" points="142.46,98.046 145.865,98.93 142.364,99.271 		"/>
	</g>
</g>
<g>
	<g>
		<path fill="#6C6C6C" d="M53.908,148.619c0,0,0.065,0.296,0.187,0.851c0.113,0.557,0.279,1.374,0.491,2.413
			c0.209,1.04,0.449,2.305,0.706,3.76c0.032,0.182,0.065,0.367,0.098,0.554l0.025,0.141l0.003,0.018l0.009,0.07l0.003,0.036
			l0.006,0.072c0.009,0.096,0.017,0.194,0.026,0.291c0.02,0.402-0.012,0.905-0.084,1.311c-0.132,0.86-0.357,1.733-0.67,2.614
			c-0.62,1.762-1.534,3.585-2.836,5.302c-0.67,0.843-1.444,1.652-2.358,2.343c-0.238,0.161-0.477,0.322-0.717,0.484
			c-0.244,0.157-0.516,0.275-0.774,0.413l-0.196,0.1c-0.085,0.045-0.136,0.056-0.206,0.086l-0.394,0.153
			c-0.263,0.102-0.527,0.205-0.792,0.308c-2.16,0.774-4.384,1.541-6.642,2.325c-1.128,0.398-2.264,0.799-3.41,1.189
			c-1.137,0.417-2.291,0.801-3.447,1.182l-0.865,0.292l-0.876,0.265c-0.585,0.176-1.169,0.351-1.753,0.526
			c-0.601,0.135-1.202,0.27-1.8,0.404c-0.599,0.136-1.185,0.215-1.775,0.324c-2.359,0.398-4.716,0.722-7.023,0.848
			c-1.153,0.077-2.296,0.059-3.413,0.007c-0.566-0.047-1.097-0.081-1.674-0.138c-0.528-0.081-1.045-0.152-1.592-0.278
			c-1.068-0.234-2.076-0.535-3.017-0.962c-0.935-0.429-1.798-0.955-2.536-1.586c-0.735-0.632-1.34-1.374-1.748-2.179
			c-0.098-0.203-0.181-0.411-0.267-0.613c-0.062-0.213-0.131-0.419-0.178-0.629c-0.085-0.437-0.123-0.811-0.163-1.177
			c-0.16-1.473-0.326-2.745-0.417-3.814c-0.093-1.062-0.166-1.897-0.216-2.466c-0.043-0.566-0.066-0.868-0.066-0.868l0.123-0.002
			c0,0,0.061,0.299,0.176,0.859c0.108,0.557,0.267,1.374,0.468,2.414c0.199,1.042,0.441,2.308,0.718,3.76
			c0.035,0.182,0.07,0.366,0.105,0.554c0.035,0.191,0.085,0.345,0.125,0.522c0.051,0.17,0.125,0.337,0.185,0.509
			c0.083,0.165,0.16,0.334,0.251,0.499c0.378,0.657,0.93,1.263,1.6,1.784c1.335,1.057,3.146,1.758,5.1,2.136
			c0.471,0.101,1.003,0.165,1.534,0.234c0.515,0.043,1.036,0.086,1.562,0.129c1.069,0.052,2.165,0.067,3.285,0.031
			c2.24-0.06,4.554-0.33,6.917-0.647c0.588-0.081,1.196-0.136,1.775-0.242c0.58-0.103,1.162-0.207,1.746-0.311
			c0.585-0.133,1.172-0.267,1.759-0.401l0.882-0.202l0.877-0.231c2.341-0.611,4.674-1.285,6.924-2.079
			c2.259-0.771,4.444-1.638,6.499-2.577c0.257-0.122,0.513-0.244,0.767-0.365l0.381-0.181c0.057-0.03,0.141-0.061,0.176-0.089
			l0.17-0.104c0.224-0.143,0.458-0.262,0.668-0.42c0.207-0.163,0.414-0.324,0.619-0.485c0.383-0.359,0.767-0.705,1.096-1.104
			c0.357-0.369,0.655-0.788,0.966-1.182c1.176-1.638,2.097-3.351,2.714-5.01c0.324-0.823,0.571-1.638,0.719-2.412
			c0.034-0.192,0.082-0.392,0.089-0.56l0.029-0.261c0.013-0.084,0.021-0.173,0.013-0.276c-0.003-0.098-0.005-0.196-0.008-0.293
			l-0.002-0.073l-0.001-0.036c0.003,0.017-0.007-0.064,0.006,0.034l-0.002-0.018l-0.017-0.143c-0.022-0.19-0.044-0.377-0.065-0.56
			c-0.173-1.471-0.308-2.756-0.408-3.817c-0.098-1.061-0.174-1.895-0.226-2.463c-0.043-0.57-0.066-0.874-0.066-0.874L53.908,148.619
			z"/>
	</g>
	<g>
		<path fill="#6C6C6C" d="M53.766,147.663c0,0,0.008,0.122,0.022,0.357c0.004,0.059,0.007,0.125,0.012,0.198
			c-0.005,0.074-0.01,0.156-0.016,0.244c-0.016,0.176-0.014,0.385-0.059,0.611c-0.126,0.913-0.471,2.224-1.116,3.814
			c-0.665,1.574-1.585,3.48-3.167,5.324c-0.795,0.912-1.752,1.819-3.028,2.457c-0.608,0.277-1.217,0.581-1.867,0.857
			c-0.649,0.278-1.318,0.555-2.003,0.833c-2.729,1.086-5.732,2.132-8.947,3.128c-0.809,0.232-1.63,0.468-2.461,0.706
			c-0.833,0.23-1.694,0.416-2.554,0.629c-0.426,0.114-0.875,0.183-1.32,0.264c-0.445,0.078-0.894,0.164-1.34,0.235
			c-0.892,0.112-1.793,0.225-2.701,0.339c-1.822,0.219-3.687,0.371-5.578,0.441c-0.473,0.008-0.947,0.017-1.423,0.026
			c-0.476-0.01-0.953-0.021-1.432-0.031c-0.479,0.002-0.957-0.069-1.437-0.101l-0.72-0.061l-0.718-0.097
			c-0.954-0.141-1.92-0.348-2.846-0.662c-0.931-0.305-1.842-0.701-2.684-1.231c-0.844-0.523-1.624-1.183-2.232-2.003
			c-0.164-0.196-0.279-0.428-0.419-0.642c-0.114-0.229-0.238-0.458-0.325-0.701c-0.09-0.244-0.174-0.489-0.221-0.747l-0.043-0.191
			c-0.019-0.085-0.019-0.128-0.03-0.194l-0.049-0.363c-0.119-0.988-0.164-2.034,0.125-3.053c0.265-1.02,0.958-1.984,1.869-2.539
			c0.901-0.575,1.9-0.861,2.867-1.074c0.973-0.212,1.939-0.342,2.889-0.478c0.949-0.138,1.887-0.262,2.796-0.449
			c0.454-0.093,0.903-0.195,1.339-0.324c0.221-0.057,0.432-0.135,0.647-0.203c0.108-0.033,0.21-0.077,0.315-0.116l0.288-0.11
			c0.426-0.2,0.85-0.4,1.274-0.599c0.412-0.207,0.773-0.444,1.16-0.66c0.753-0.47,1.491-0.991,2.182-1.555
			c2.768-2.243,5.152-4.974,8.089-6.841c1.458-0.936,3.007-1.637,4.552-2.146c0.392-0.106,0.781-0.212,1.166-0.316
			c0.193-0.048,0.383-0.112,0.577-0.147c0.194-0.034,0.387-0.069,0.579-0.103c0.384-0.065,0.765-0.13,1.143-0.194
			c0.405-0.062,0.749-0.079,1.12-0.12c0.733-0.06,1.431-0.167,2.15-0.175c0.713-0.017,1.409-0.057,2.085-0.052
			c0.677,0.028,1.335,0.042,1.973,0.081c0.638,0.082,1.258,0.133,1.853,0.23c1.186,0.231,2.293,0.506,3.238,0.971
			c0.235,0.117,0.475,0.21,0.69,0.34c0.211,0.137,0.417,0.272,0.618,0.403c0.21,0.117,0.383,0.279,0.556,0.429
			c0.169,0.155,0.352,0.285,0.496,0.448c1.193,1.284,1.613,2.637,1.818,3.521c0.094,0.45,0.161,0.796,0.192,1.031l0.055,0.357
			L53.766,147.663z M53.644,147.674c-0.001-0.007-0.021-0.125-0.058-0.35c-0.034-0.233-0.105-0.575-0.204-1.019
			c-0.212-0.868-0.643-2.198-1.845-3.389c-1.203-1.188-3.197-1.945-5.512-2.205c-0.581-0.061-1.189-0.075-1.808-0.114
			c-0.623,0.001-1.266,0.029-1.922,0.042c-0.656,0.037-1.325,0.119-2.01,0.177c-0.34,0.024-0.69,0.077-1.045,0.132
			c-0.354,0.051-0.713,0.103-1.075,0.156c-0.353,0.056-0.748,0.097-1.078,0.167c-0.356,0.076-0.716,0.153-1.079,0.231
			c-0.181,0.037-0.364,0.075-0.547,0.113c-0.183,0.039-0.359,0.104-0.54,0.155c-0.36,0.109-0.723,0.218-1.089,0.329
			c-1.433,0.525-2.873,1.175-4.227,2.077c-1.35,0.906-2.632,1.999-3.925,3.175c-1.291,1.176-2.594,2.444-4.075,3.591
			c-0.736,0.58-1.515,1.114-2.345,1.613c-0.425,0.232-0.855,0.494-1.282,0.699c-0.426,0.192-0.854,0.385-1.283,0.578
			c-1.906,0.747-3.827,0.978-5.741,1.201c-0.954,0.109-1.904,0.212-2.826,0.386c-0.919,0.173-1.825,0.418-2.579,0.874
			c-0.769,0.433-1.323,1.135-1.594,1.988c-0.077,0.209-0.113,0.435-0.165,0.655c-0.023,0.229-0.075,0.452-0.078,0.686
			c-0.029,0.471-0.022,0.916,0.023,1.405c0.056,1.894,1.328,3.494,2.9,4.533c1.593,1.039,3.462,1.63,5.335,1.907
			c3.786,0.545,7.576,0.133,11.162-0.461c0.901-0.155,1.794-0.309,2.679-0.461c0.432-0.096,0.862-0.191,1.29-0.286
			c0.426-0.098,0.85-0.181,1.27-0.313c0.839-0.247,1.672-0.47,2.488-0.728c0.817-0.256,1.624-0.509,2.421-0.758
			c3.179-1.029,6.168-2.058,8.924-3.013c0.681-0.247,1.349-0.488,2.001-0.724c0.655-0.233,1.288-0.503,1.909-0.743
			c1.153-0.493,2.134-1.295,2.939-2.127c0.803-0.843,1.486-1.715,2.024-2.582c0.284-0.424,0.516-0.857,0.751-1.262
			c0.206-0.421,0.423-0.813,0.585-1.206c0.701-1.548,1.047-2.852,1.179-3.748c0.047-0.224,0.045-0.421,0.063-0.592
			c0.007-0.085,0.013-0.164,0.019-0.236c-0.004-0.073-0.007-0.139-0.01-0.198C53.65,147.802,53.644,147.683,53.644,147.674z"/>
	</g>
	<g>
		<path fill="#6C6C6C" d="M46.149,146.929c0,0,0.006,0.102,0.017,0.293c-0.021,0.2-0.043,0.502-0.208,0.839
			c-0.152,0.341-0.404,0.728-0.763,1.118c-0.359,0.389-0.827,0.778-1.399,1.095c-0.571,0.315-1.246,0.546-1.976,0.658
			c-0.188,0.024-0.358,0.048-0.568,0.063c-0.182,0.005-0.358,0.012-0.552,0.011c-0.399-0.007-0.791-0.039-1.185-0.099
			c-0.788-0.121-1.583-0.297-2.359-0.599c-0.384-0.157-0.774-0.339-1.117-0.624c-0.086-0.07-0.166-0.151-0.25-0.228
			c-0.08-0.081-0.147-0.179-0.22-0.27c-0.068-0.096-0.121-0.206-0.181-0.312c-0.026-0.055-0.042-0.115-0.063-0.173l-0.029-0.089
			l-0.014-0.045l-0.007-0.022l-0.003-0.011c-0.003-0.018,0.001,0.024-0.007-0.043c-0.014-0.104-0.034-0.197-0.044-0.309
			c0.004-0.133,0.005-0.281,0.026-0.409c0.028-0.119,0.049-0.246,0.089-0.362c0.045-0.112,0.085-0.231,0.138-0.339
			c0.216-0.436,0.53-0.782,0.865-1.078c0.674-0.594,1.445-0.981,2.21-1.271c0.762-0.29,1.56-0.446,2.277-0.496
			c0.763-0.053,1.468-0.019,2.108,0.14c0.639,0.146,1.199,0.391,1.656,0.661c0.457,0.272,0.811,0.571,1.055,0.855
			c0.256,0.278,0.36,0.562,0.435,0.743c0.045,0.194,0.068,0.297,0.068,0.297L46.149,146.929z M46.027,146.941
			c0,0-0.025-0.094-0.073-0.271c-0.078-0.163-0.195-0.415-0.468-0.627c-0.263-0.216-0.644-0.402-1.106-0.507
			c-0.461-0.109-0.997-0.142-1.57-0.142c-0.573,0.012-1.2,0.029-1.83,0.115c-0.675,0.089-1.336,0.222-2.021,0.423
			c-0.673,0.209-1.363,0.487-1.938,0.907c-0.285,0.208-0.561,0.437-0.756,0.704c-0.05,0.066-0.09,0.135-0.138,0.203
			c-0.043,0.07-0.067,0.143-0.105,0.215l-0.066,0.194c-0.012,0.09-0.012,0.201-0.019,0.301c-0.006-0.061-0.001-0.013-0.002-0.024
			l0.001,0.007l0.002,0.015l0.004,0.03l0.007,0.06c0.006,0.04,0.006,0.082,0.016,0.122c0.029,0.077,0.046,0.161,0.081,0.239
			c0.045,0.074,0.08,0.155,0.132,0.227c0.057,0.069,0.108,0.145,0.171,0.212c0.254,0.27,0.595,0.468,0.949,0.616
			c0.711,0.308,1.508,0.35,2.241,0.293c0.37-0.03,0.729-0.093,1.063-0.157c0.179-0.038,0.356-0.075,0.531-0.112
			c0.163-0.038,0.323-0.076,0.482-0.113c0.644-0.156,1.241-0.323,1.789-0.499c0.548-0.173,1.049-0.366,1.46-0.603
			c0.411-0.235,0.724-0.524,0.913-0.808c0.2-0.285,0.236-0.56,0.263-0.734c-0.008-0.191-0.012-0.292-0.012-0.292L46.027,146.941z"/>
	</g>
</g>
<g>
	<g>
		<path fill="#6C6C6C" d="M115.107,159.226c0.688,0.574,1.304,1.227,1.886,1.911c0.291,0.342,0.573,0.695,0.833,1.064
			c0.262,0.368,0.507,0.75,0.738,1.142c0.459,0.785,0.837,1.629,1.098,2.524c0.255,0.895,0.369,1.852,0.271,2.809
			c-0.049,0.477-0.151,0.954-0.317,1.408c-0.065,0.234-0.178,0.448-0.279,0.667c-0.053,0.108-0.1,0.22-0.158,0.325l-0.191,0.306
			c-0.241,0.419-0.557,0.779-0.867,1.138l-0.509,0.493c-0.168,0.167-0.363,0.296-0.543,0.446c-0.357,0.307-0.761,0.534-1.152,0.782
			c-0.397,0.234-0.811,0.433-1.219,0.64c-0.423,0.171-0.843,0.348-1.266,0.51l-1.286,0.428l-0.036,0.012l-0.024,0.003l-3.176,0.451
			c-1.058,0.157-2.113,0.333-3.164,0.53c-1.052,0.194-2.099,0.41-3.144,0.636c-1.044,0.231-2.086,0.472-3.121,0.739
			c-1.036,0.263-2.071,0.531-3.099,0.819c-1.029,0.285-2.053,0.586-3.074,0.886c-1.023,0.296-2.035,0.62-3.032,0.964
			c-0.489,0.184-1.005,0.334-1.469,0.549l-1.473,0.627c-0.467,0.225-1.049,0.381-1.59,0.559c-0.276,0.074-0.556,0.121-0.834,0.182
			c-0.14,0.027-0.278,0.063-0.42,0.081l-0.43,0.04c-1.14,0.118-2.343-0.006-3.443-0.435c-1.106-0.417-2.065-1.136-2.851-1.961
			c-0.791-0.828-1.413-1.778-1.919-2.766c-0.509-0.988-0.911-2.017-1.219-3.067c-0.317-1.047-0.547-2.113-0.716-3.185
			c-0.167-1.072-0.289-2.149-0.322-3.23c-0.018-0.54-0.015-1.082,0.009-1.622c0.033-0.54,0.062-1.083,0.242-1.615l0.116,0.042
			c-0.096,0.505-0.056,1.046-0.034,1.572c0.035,0.529,0.09,1.057,0.166,1.583c0.147,1.05,0.33,2.095,0.582,3.121
			c0.251,1.026,0.555,2.036,0.907,3.021c0.356,0.984,0.785,1.936,1.29,2.832c0.511,0.891,1.105,1.726,1.804,2.434
			c0.698,0.71,1.522,1.261,2.418,1.616c0.898,0.361,1.883,0.446,2.866,0.379l0.37-0.022c0.123-0.012,0.246-0.042,0.369-0.062
			c0.245-0.048,0.496-0.081,0.737-0.139c0.477-0.15,0.942-0.242,1.449-0.466l1.498-0.589c0.515-0.219,1.035-0.354,1.552-0.532
			c1.039-0.312,2.083-0.585,3.129-0.836c0.522-0.133,1.046-0.251,1.572-0.358c0.526-0.11,1.05-0.227,1.577-0.327
			c1.053-0.209,2.104-0.418,3.158-0.614l3.156-0.601l3.148-0.636c0.525-0.104,1.048-0.217,1.571-0.333
			c0.523-0.113,1.047-0.223,1.569-0.347l3.139-0.7l-0.06,0.015l1.205-0.506l1.163-0.575c0.367-0.222,0.752-0.416,1.107-0.649
			c0.345-0.246,0.712-0.465,1.028-0.738c0.159-0.135,0.337-0.253,0.481-0.401l0.443-0.436c0.268-0.309,0.553-0.611,0.759-0.961
			l0.168-0.254c0.051-0.087,0.09-0.18,0.137-0.27c0.087-0.182,0.19-0.358,0.245-0.553c0.145-0.376,0.237-0.771,0.3-1.172
			c0.059-0.402,0.071-0.813,0.048-1.226c-0.024-0.413-0.093-0.826-0.181-1.238c-0.179-0.824-0.491-1.629-0.862-2.409
			c-0.187-0.39-0.39-0.774-0.612-1.15c-0.222-0.375-0.445-0.752-0.692-1.115c-0.487-0.73-1.027-1.43-1.602-2.101L115.107,159.226z"
			/>
	</g>
	<g>
		<path fill="#6C6C6C" d="M77.3,167.9c0,0-1.015-0.515-2.583-1.746c-0.784-0.614-1.691-1.427-2.607-2.492
			c-0.906-1.066-1.83-2.411-2.381-4.119c-0.255-0.856-0.399-1.801-0.346-2.781c0.047-0.979,0.318-1.985,0.792-2.898
			c0.476-0.91,1.09-1.773,1.855-2.494c0.354-0.392,0.781-0.705,1.176-1.061c0.204-0.169,0.425-0.318,0.638-0.478l0.323-0.237
			l0.162-0.119l0.04-0.03c0.051-0.036,0.039-0.024,0.061-0.039l0.085-0.05c0.228-0.133,0.457-0.266,0.687-0.4
			c0.258-0.111,0.516-0.223,0.776-0.335c0.258-0.115,0.525-0.17,0.786-0.264c0.26-0.094,0.528-0.154,0.796-0.217
			c0.534-0.138,1.078-0.224,1.62-0.33c0.544-0.083,1.091-0.167,1.64-0.252c1.095-0.167,2.199-0.322,3.281-0.571
			c0.273-0.054,0.538-0.134,0.806-0.206c0.267-0.075,0.537-0.139,0.796-0.236l0.782-0.269l0.755-0.328
			c0.256-0.099,0.486-0.248,0.726-0.377c0.236-0.135,0.481-0.254,0.695-0.421l0.66-0.466l0.6-0.535
			c0.203-0.169,0.401-0.361,0.616-0.563c0.211-0.195,0.422-0.383,0.636-0.569c0.429-0.371,0.866-0.728,1.309-1.075
			c1.784-1.369,3.686-2.545,5.68-3.418c1.985-0.865,4.124-1.391,6.193-1.231c1.026,0.08,2.032,0.289,2.925,0.693
			c0.886,0.408,1.693,0.911,2.353,1.514c0.178,0.137,0.325,0.301,0.476,0.458c0.15,0.157,0.298,0.312,0.445,0.466
			c0.26,0.332,0.523,0.65,0.756,0.974c0.219,0.34,0.426,0.645,0.631,0.993c0.169,0.303,0.338,0.698,0.456,1.016
			c0.248,0.667,0.417,1.301,0.547,1.894c0.129,0.592,0.216,1.142,0.25,1.645c0.083,1.002,0.014,1.802-0.12,2.329
			c-0.079,0.262-0.141,0.459-0.211,0.583c-0.06,0.126-0.09,0.192-0.09,0.192l-0.11-0.054c0,0,0.02-0.066,0.06-0.193
			c0.049-0.123,0.081-0.319,0.122-0.571c0.065-0.509,0.052-1.273-0.136-2.221c-0.184-0.942-0.488-2.093-1.044-3.296
			c-0.15-0.312-0.275-0.562-0.485-0.882c-0.206-0.279-0.418-0.567-0.636-0.861c-0.232-0.287-0.491-0.562-0.744-0.852
			c-0.288-0.252-0.554-0.545-0.873-0.781c-0.608-0.513-1.33-0.915-2.106-1.236c-0.781-0.314-1.644-0.484-2.542-0.53
			c-0.899-0.041-1.835,0.048-2.78,0.238c-0.946,0.197-1.895,0.514-2.843,0.889c-1.896,0.762-3.752,1.852-5.526,3.112
			c-0.444,0.315-0.884,0.64-1.316,0.978c-0.215,0.17-0.429,0.342-0.638,0.517c-0.201,0.171-0.414,0.358-0.65,0.538
			c-0.232,0.179-0.462,0.361-0.696,0.534l-0.751,0.452c-0.244,0.162-0.515,0.271-0.777,0.396c-0.265,0.118-0.521,0.256-0.798,0.342
			c-1.074,0.436-2.201,0.665-3.31,0.868c-0.556,0.102-1.112,0.187-1.666,0.261c-0.552,0.078-1.103,0.155-1.652,0.232
			c-1.094,0.158-2.176,0.329-3.201,0.635c-0.257,0.074-0.514,0.144-0.757,0.246c-0.243,0.098-0.5,0.178-0.722,0.3
			c-0.224,0.117-0.447,0.234-0.67,0.35c-0.218,0.152-0.436,0.303-0.652,0.453c-1.602,1.247-2.966,2.793-3.728,4.419
			c-0.806,1.628-0.838,3.394-0.414,4.915c0.429,1.533,1.232,2.828,2.019,3.902c0.807,1.068,1.614,1.933,2.308,2.616
			c0.693,0.687,1.28,1.186,1.683,1.522c0.401,0.34,0.626,0.507,0.626,0.507L77.3,167.9z"/>
	</g>
	<g>
		<path fill="#6C6C6C" d="M103.573,150.54c0,0,0.14,0.057,0.394,0.18c0.252,0.127,0.618,0.323,1.058,0.618
			c0.44,0.295,0.96,0.685,1.485,1.227c0.524,0.537,1.072,1.232,1.421,2.162c0.164,0.465,0.271,0.988,0.266,1.541
			c-0.004,0.554-0.16,1.119-0.406,1.633c-0.12,0.263-0.287,0.494-0.445,0.734c-0.185,0.216-0.36,0.447-0.572,0.637l-0.312,0.293
			l-0.336,0.265c-0.219,0.184-0.466,0.33-0.701,0.492c-0.253,0.168-0.484,0.291-0.729,0.442c-0.242,0.143-0.482,0.296-0.739,0.433
			c-0.254,0.138-0.505,0.285-0.754,0.436c-0.254,0.141-0.515,0.271-0.767,0.42c-1.023,0.568-2.07,1.13-3.128,1.685
			c-1.063,0.54-2.141,1.066-3.244,1.474c-0.547,0.215-1.095,0.415-1.641,0.598c-0.543,0.193-1.085,0.368-1.621,0.527
			c-0.533,0.171-1.064,0.317-1.587,0.445c-0.521,0.136-1.032,0.266-1.537,0.358c-0.504,0.097-0.99,0.21-1.466,0.285
			c-0.476,0.074-0.937,0.145-1.379,0.214c-0.887,0.113-1.701,0.208-2.426,0.261c-0.725,0.048-1.355,0.093-1.877,0.098
			c-0.521,0.004-0.931,0.006-1.21,0.008c-0.279-0.005-0.428-0.007-0.428-0.007l-0.012-0.122c0,0,0.145-0.036,0.416-0.103
			c0.271-0.061,0.669-0.149,1.175-0.263c0.505-0.11,1.116-0.262,1.818-0.408c0.698-0.161,1.486-0.343,2.345-0.541
			c0.857-0.202,1.782-0.426,2.758-0.67c0.974-0.249,2.001-0.512,3.064-0.783c0.533-0.131,1.069-0.282,1.612-0.436
			c0.546-0.145,1.091-0.316,1.641-0.486c1.1-0.343,2.222-0.684,3.334-1.066c0.555-0.193,1.102-0.409,1.644-0.63
			c0.529-0.248,1.069-0.476,1.569-0.765c1.023-0.536,1.948-1.209,2.775-1.923c0.794-0.724,1.451-1.527,1.782-2.348
			c0.359-0.81,0.371-1.646,0.131-2.395c-0.106-0.377-0.27-0.732-0.457-1.056c-0.186-0.325-0.385-0.63-0.594-0.903
			c-0.418-0.547-0.835-1-1.195-1.36c-0.723-0.717-1.186-1.095-1.186-1.095L103.573,150.54z"/>
	</g>
	<g>
		<path fill="#6C6C6C" d="M123.243,149.44l-0.617-2.61c-0.05-0.221-0.109-0.437-0.171-0.652c-0.063-0.214-0.109-0.436-0.183-0.638
			c-0.073-0.197-0.123-0.436-0.216-0.589l-0.12-0.255l-0.181-0.25l-0.188-0.203l-0.225-0.219c-0.156-0.145-0.32-0.288-0.49-0.425
			c-0.335-0.28-0.69-0.55-1.049-0.813c-0.723-0.519-1.471-1.028-2.205-1.53l0.786-0.324c-0.191,0.702-0.418,1.384-0.657,2.065
			c-0.237,0.681-0.495,1.355-0.749,2.029l-0.779,2.016c-0.279,0.665-0.546,1.336-0.896,1.983l-0.289,0.479l-0.184,0.227
			l-0.093,0.114l-0.023,0.028l-0.006,0.007c0,0-0.046,0.039-0.028,0.024l-0.013,0.01l-0.053,0.041l-0.105,0.083l-0.15,0.079
			c-0.107,0.058-0.204,0.092-0.294,0.119c-0.188,0.068-0.372,0.1-0.557,0.139c-0.731,0.139-1.453,0.184-2.119,0.321
			c-0.33,0.062-0.649,0.167-0.842,0.299c-0.064,0.027-0.068,0.07-0.109,0.096c-0.031,0.031-0.024,0.063-0.05,0.085
			c-0.006,0.013,0.042-0.112,0.021-0.055l-0.002,0.008l-0.004,0.016l-0.008,0.033l-0.015,0.066c0.01,0.008,0.017,0.009,0.018,0.012
			c0.006,0.031,0.013,0.11,0.027,0.176c0.121,0.582,0.415,1.24,0.72,1.835c0.157,0.298,0.33,0.595,0.509,0.838
			c0.007,0.01,0.031,0.043,0.024,0.033l0.042,0.052l0.084,0.103l0.151,0.166c0.112,0.119,0.229,0.237,0.352,0.352
			c0.483,0.454,1.044,0.903,1.552,1.183c0.118,0.073,0.259,0.104,0.235,0.1l-0.018,0.005c0.084-0.013-0.118,0.019-0.093,0.015
			l0.008-0.002l0.016-0.004l0.033-0.008l0.13-0.031l0.033-0.008c0.006-0.003-0.001-0.005-0.001-0.008c0,0-0.006-0.007-0.009-0.009
			c-0.006-0.004-0.01-0.002-0.009,0.003c0.125-0.085,0.322-0.337,0.473-0.606c0.324-0.552,0.568-1.223,0.904-1.892
			c0.177-0.338,0.338-0.683,0.669-1.049l0.138-0.136l0.017-0.017l0.009-0.008l0.041-0.032l0.028-0.018l0.056-0.037l0.224-0.148
			c0.155-0.095,0.293-0.197,0.462-0.286c0.34-0.175,0.682-0.359,1.017-0.52l0.997-0.439c0.668-0.276,1.342-0.535,2.021-0.774
			C121.902,149.862,122.565,149.633,123.243,149.44z M123.375,149.518l-3.801,2.08l-0.917,0.533l-0.852,0.535
			c-0.141,0.089-0.282,0.214-0.423,0.319l-0.214,0.162l-0.053,0.041l-0.027,0.02c-0.031,0.025,0.035-0.028,0.027-0.021l-0.003,0.004
			l-0.006,0.008l-0.047,0.058c-0.141,0.174-0.287,0.487-0.415,0.793c-0.262,0.63-0.498,1.315-0.865,2.018
			c-0.198,0.348-0.387,0.726-0.851,1.061c-0.078,0.048-0.16,0.093-0.244,0.133c-0.073,0.035-0.196,0.088-0.22,0.087l-0.131,0.031
			l-0.033,0.008l-0.016,0.004l-0.008,0.002c0.019-0.002-0.188,0.029-0.11,0.016c-0.05,0.001-0.101,0-0.151-0.003
			c-0.379-0.04-0.577-0.153-0.771-0.251c-0.747-0.412-1.277-0.915-1.821-1.452c-0.133-0.136-0.263-0.276-0.39-0.423
			c-0.064-0.072-0.133-0.161-0.199-0.241l-0.08-0.109l-0.04-0.054l-0.052-0.077c-0.228-0.346-0.396-0.679-0.557-1.023
			c-0.31-0.693-0.585-1.367-0.706-2.199c-0.009-0.05-0.012-0.109-0.013-0.168c0-0.066-0.008-0.099-0.001-0.191
			c0.006-0.086,0.018-0.175,0.035-0.256l0.021-0.064l0.011-0.032l0.035-0.094c0.079-0.121,0.159-0.26,0.261-0.349
			c0.102-0.079,0.211-0.187,0.316-0.227c0.431-0.222,0.829-0.266,1.205-0.301c0.753-0.062,1.468-0.022,2.155-0.076
			c0.168-0.018,0.341-0.034,0.494-0.074c0.083-0.016,0.157-0.037,0.211-0.059l0.094-0.03l0.113-0.073l0.056-0.037l0.014-0.009
			c0.022-0.018-0.022,0.019-0.016,0.013l0.005-0.006l0.02-0.023l0.082-0.09l0.165-0.18l0.29-0.425
			c0.35-0.603,0.635-1.256,0.881-1.921c0.119-0.335,0.241-0.669,0.336-1.012c0.105-0.34,0.203-0.682,0.288-1.029
			c0.353-1.38,0.609-2.792,0.904-4.173l0.147-0.689l0.639,0.364c0.409,0.233,0.793,0.481,1.176,0.742
			c0.19,0.132,0.385,0.256,0.569,0.397l0.556,0.419c0.366,0.289,0.732,0.576,1.08,0.9c0.174,0.16,0.343,0.329,0.509,0.506
			l0.247,0.275l0.25,0.321l0.091,0.145l0.045,0.072l0.023,0.036l0.011,0.018l0.018,0.03l0.002,0.006l0.004,0.012l0.14,0.377
			c0.107,0.258,0.123,0.477,0.184,0.715c0.056,0.234,0.087,0.463,0.118,0.694c0.033,0.231,0.063,0.461,0.083,0.69
			c0.053,0.458,0.075,0.918,0.102,1.376c0.017,0.459,0.027,0.919,0.017,1.378L123.375,149.518z"/>
	</g>
	<g>
		<path fill="#6C6C6C" d="M116.789,152.712c0,0,0.045,0.003,0.134,0.021c0.088,0.019,0.213,0.055,0.36,0.117
			c0.148,0.062,0.321,0.152,0.504,0.277c0.181,0.127,0.374,0.286,0.554,0.489c0.095,0.098,0.185,0.208,0.264,0.331
			c0.083,0.12,0.168,0.247,0.23,0.391c0.116,0.292,0.189,0.621,0.204,0.966c0.045,0.336,0.047,0.675,0.137,1
			c0.051,0.162,0.06,0.332,0.111,0.499c0.042,0.168,0.111,0.337,0.149,0.51c0.062,0.344,0.185,0.712,0.15,1.061
			c-0.01,0.176-0.019,0.351-0.028,0.524c-0.004,0.176-0.027,0.345-0.066,0.506c-0.066,0.326-0.147,0.643-0.265,0.924
			c-0.133,0.273-0.282,0.521-0.415,0.748c-0.072,0.111-0.138,0.218-0.21,0.314c-0.074,0.095-0.156,0.178-0.226,0.259
			c-0.143,0.161-0.279,0.292-0.393,0.398c-0.227,0.212-0.38,0.312-0.38,0.312l-0.105-0.064c0,0,0.005-0.191,0.055-0.49
			c0.024-0.15,0.056-0.328,0.106-0.523c0.049-0.196,0.112-0.409,0.151-0.65c0.058-0.233,0.116-0.484,0.201-0.737
			c0.065-0.259,0.131-0.527,0.242-0.797c0.06-0.135,0.098-0.275,0.134-0.418c0.04-0.144,0.081-0.289,0.122-0.435
			c0.05-0.147,0.084-0.296,0.12-0.448l0.137-0.466c0.068-0.314,0.102-0.646,0.047-0.957c-0.06-0.311-0.184-0.604-0.385-0.843
			c-0.172-0.251-0.399-0.447-0.533-0.667c-0.164-0.204-0.257-0.432-0.387-0.62c-0.116-0.202-0.223-0.387-0.318-0.551
			c-0.096-0.174-0.179-0.326-0.248-0.451c-0.072-0.128-0.124-0.237-0.162-0.309c-0.034-0.078-0.059-0.119-0.059-0.119
			L116.789,152.712z"/>
	</g>
</g>
<g>
	<g>
		<path fill="#6C6C6C" d="M144.203,168.851c-0.042,1.444-0.014,2.893,0.084,4.334c0.114,1.438,0.296,2.881,0.695,4.257
			c0.207,0.681,0.483,1.354,0.912,1.885c0.114,0.124,0.23,0.245,0.363,0.337c0.137,0.089,0.234,0.155,0.429,0.204l0.065,0.019
			l0.032,0.01c-0.004-0.001,0.032,0.01-0.005-0.002l0.01-0.001c0.025-0.003,0.049-0.004,0.073-0.001
			c0.059-0.025,0.117-0.031,0.182-0.078c0.127-0.068,0.254-0.186,0.371-0.305c0.471-0.495,0.855-1.109,1.218-1.721
			c0.362-0.617,0.696-1.253,1.016-1.897c0.638-1.289,1.226-2.607,1.785-3.935l0.411-0.999l0.05-0.125l0.025-0.062l0.012-0.031
			l0.027-0.059l0.117-0.245l0.236-0.489l0.119-0.244l0.076-0.152l0.068-0.118l0.271-0.47l0.068-0.118l0.034-0.059l0.057-0.078
			c0.08-0.099,0.159-0.223,0.251-0.291c0.094-0.076,0.173-0.154,0.284-0.225c0.118-0.069,0.244-0.135,0.367-0.19l0.259-0.081
			l0.307-0.065l0.528-0.113l1.057-0.23l2.111-0.476c1.406-0.327,2.806-0.673,4.203-1.026c1.394-0.366,2.786-0.739,4.162-1.158
			c1.38-0.408,2.744-0.857,4.094-1.333c0.67-0.245,1.341-0.503,1.995-0.77c0.642-0.283,1.283-0.543,1.93-0.891l0.484-0.246
			l0.121-0.061l0.096-0.058l0.228-0.136l0.912-0.542c0.606-0.366,1.177-0.791,1.766-1.186c1.135-0.857,2.249-1.749,3.294-2.726
			l0.786-0.729l0.761-0.758c0.515-0.497,0.99-1.035,1.486-1.552c0.961-1.064,1.896-2.154,2.787-3.28
			c0.888-1.123,1.758-2.281,2.543-3.461l-0.033,0.063c0.003-0.01,0.006-0.02,0.012-0.032c0,0,0.007-0.012,0.003-0.006
			c-0.001,0.002-0.002,0.007-0.002,0.007c0,0.004,0.002,0.001,0.002,0.011c-0.002,0.018-0.001,0.038,0.004,0.056
			c0.006,0.018,0.01,0.029,0.028,0.078c0.018,0.039,0.046,0.075,0.078,0.099c0.027,0.03,0.064,0.056,0.104,0.071
			c0.049,0.015,0.061,0.018,0.079,0.022c0.019,0.003,0.038,0.003,0.056,0c0.01-0.001,0.011,0.001,0.011,0.001
			c0.003,0,0.005-0.001,0.006-0.003l-0.009,0.004c-0.01,0.005-0.019,0.008-0.03,0.011l-0.08,0.032
			c-3.061,0.884-6.131,1.734-9.198,2.597l0.057-0.023c-0.072,0.029-0.12,0.06-0.222,0.083l-0.069,0.015
			c-0.032,0.004-0.074,0.004-0.112,0.002c-0.047,0.011-0.225-0.046-0.302-0.15c-0.039-0.053-0.07-0.122-0.084-0.186
			c-0.007-0.047-0.004-0.078-0.002-0.119c0.005-0.086,0.025-0.123,0.043-0.176c0.049-0.121,0.046-0.094,0.098-0.19l0.341-0.539
			l0.681-1.078l1.363-2.155c0.908-1.437,1.822-2.871,2.713-4.319c0.051-0.086,0.122-0.191,0.158-0.26
			c0.042-0.064,0.038-0.119,0.032-0.152c-0.004-0.028-0.041-0.068-0.076-0.078c-0.007-0.011-0.115-0.026-0.118-0.029l-0.156-0.015
			c-0.42-0.036-0.842-0.065-1.265-0.085c-0.845-0.047-1.692-0.061-2.539-0.065c-1.694-0.007-3.388,0.099-5.07,0.283
			c-1.685,0.171-3.35,0.494-4.986,0.907c-1.645,0.408-3.215,1.004-4.723,1.726l-1.132,0.588l-1.05,0.662
			c-0.36,0.212-0.688,0.479-1.032,0.719c-0.34,0.247-0.684,0.486-1.008,0.757l-0.986,0.789c-0.324,0.269-0.64,0.55-0.96,0.825
			c-0.646,0.542-1.253,1.131-1.88,1.697c-1.235,1.153-2.441,2.339-3.627,3.547c-1.192,1.202-2.347,2.44-3.502,3.679
			c-0.577,0.62-1.146,1.247-1.71,1.879l-0.847,0.946l-0.418,0.475l-0.096,0.11c-0.043,0.051-0.086,0.103-0.133,0.149
			c-0.091,0.096-0.193,0.182-0.306,0.265c-0.061,0.041-0.119,0.081-0.198,0.12c-0.035,0.035-0.312,0.109-0.304,0.095
			c-0.035,0.002,0.051-0.001-0.084,0.006l-0.024-0.003l-0.048-0.006l-0.097-0.012l-0.193-0.026c-0.25-0.041-0.413-0.084-0.654-0.135
			l-1.231-0.293c-0.823-0.19-1.65-0.367-2.48-0.525c-1.657-0.305-3.337-0.59-4.998-0.581c-0.41,0.011-0.826,0.039-1.196,0.147
			c-0.181,0.055-0.353,0.134-0.456,0.24c-0.102,0.101-0.135,0.238-0.104,0.393c0.112,0.379,0.268,0.786,0.4,1.179
			c0.164,0.385,0.341,0.766,0.52,1.145c0.777,1.488,1.887,2.808,3.229,3.831c0.665,0.521,1.401,0.948,2.166,1.306
			c0.386,0.17,0.776,0.336,1.18,0.458c0.188,0.058,0.437,0.101,0.598,0.274c0.077,0.083,0.149,0.174,0.19,0.282
			c0.05,0.104,0.064,0.231,0.066,0.33L144.203,168.851z M144.087,168.851c0.002-0.215-0.084-0.385-0.224-0.532
			c-0.14-0.147-0.336-0.177-0.549-0.241c-0.412-0.122-0.807-0.286-1.199-0.456c-0.779-0.353-1.518-0.791-2.207-1.299
			c-1.39-1.002-2.533-2.329-3.404-3.812c-0.199-0.381-0.397-0.764-0.582-1.153c-0.155-0.407-0.323-0.788-0.468-1.217
			c-0.075-0.255-0.017-0.586,0.181-0.794c0.189-0.206,0.42-0.308,0.638-0.387c0.443-0.148,0.883-0.191,1.319-0.222
			c1.743-0.08,3.447,0.136,5.142,0.372c0.847,0.124,1.69,0.266,2.531,0.422c0.421,0.077,0.84,0.16,1.26,0.253
			c0.175,0.032,0.426,0.086,0.597,0.106l0.124,0.013l0.062,0.007l0.031,0.004l0.015,0.002c-0.122,0.006-0.022,0-0.045,0.001
			l0.039-0.006c0.012-0.002-0.015-0.003-0.021-0.002c-0.011,0.001-0.021,0.004-0.03,0.009c-0.009,0.005,0.008-0.006,0.008-0.006
			c0.017-0.008,0.046-0.029,0.073-0.048c0.056-0.046,0.117-0.097,0.17-0.158c0.029-0.029,0.052-0.06,0.077-0.091l0.11-0.134
			l0.411-0.494c0.276-0.326,0.549-0.654,0.831-0.974c0.561-0.643,1.126-1.282,1.7-1.913c1.14-1.27,2.321-2.502,3.525-3.713
			c1.195-1.22,2.451-2.38,3.716-3.53c0.651-0.556,1.286-1.128,1.96-1.659c0.334-0.268,0.663-0.542,1.001-0.805l1.03-0.772
			c0.338-0.264,0.7-0.498,1.055-0.74c0.36-0.235,0.702-0.495,1.083-0.704l1.131-0.659l1.151-0.549
			c1.577-0.694,3.225-1.251,4.894-1.611c1.666-0.392,3.358-0.66,5.056-0.831c1.698-0.176,3.403-0.258,5.109-0.28
			c0.853-0.005,1.706,0.001,2.559,0.04c0.427,0.016,0.853,0.042,1.28,0.074l0.162,0.014c0.1,0.018,0.101,0.012,0.192,0.041
			c0.17,0.05,0.302,0.18,0.356,0.354c0.048,0.17,0.01,0.343-0.06,0.46c-0.062,0.119-0.112,0.19-0.169,0.287
			c-0.887,1.45-1.751,2.914-2.621,4.375l-1.304,2.191l-0.652,1.096l-0.322,0.546c0,0-0.067,0.116-0.048,0.097
			c0.002-0.002-0.003,0.01,0.005-0.022c0.001-0.014-0.001-0.018-0.005-0.04c-0.003-0.04-0.023-0.084-0.052-0.113
			c-0.151-0.152-0.219-0.068-0.184-0.096c0.003,0.003,0.048-0.023,0.074-0.033l0.057-0.023c3.04-0.953,6.076-1.919,9.123-2.851
			l-0.08,0.032l0.124-0.055c0.023-0.009,0.036-0.017,0.069-0.025l0.088-0.021c0.031-0.006,0.056-0.012,0.093-0.016
			c0.046-0.002,0.093,0,0.14,0.005c0.046,0.006,0.086,0.008,0.159,0.041c0.065,0.028,0.127,0.067,0.178,0.111
			c0.047,0.048,0.09,0.108,0.122,0.171c0.037,0.071,0.043,0.111,0.051,0.157c0.008,0.046,0.013,0.093,0.014,0.14
			c-0.001,0.037-0.005,0.062-0.009,0.094l-0.015,0.09c-0.006,0.034-0.013,0.047-0.02,0.071l-0.046,0.129l-0.008,0.023l-0.025,0.039
			c-0.793,1.249-1.642,2.425-2.525,3.592c-0.884,1.163-1.828,2.278-2.793,3.376c-0.499,0.534-0.978,1.088-1.499,1.603l-0.769,0.784
			l-0.797,0.757c-1.059,1.015-2.197,1.949-3.362,2.849c-1.198,0.86-2.419,1.696-3.752,2.37c-0.628,0.34-1.327,0.631-2.01,0.932
			c-0.686,0.282-1.367,0.545-2.055,0.798c-1.379,0.491-2.767,0.949-4.17,1.343c-1.399,0.411-2.808,0.774-4.218,1.13
			c-1.413,0.345-2.827,0.68-4.251,0.972l-2.136,0.434c-0.356,0.071-0.714,0.138-1.072,0.202l-0.538,0.096l-0.135,0.023l-0.068,0.012
			l-0.034,0.006l-0.017,0.003c0.014-0.004-0.056,0.012,0.028-0.007l-0.262,0.072c-0.038,0.029-0.07,0.051-0.111,0.068
			c-0.043,0.024-0.095,0.074-0.144,0.107c-0.059,0.036-0.066,0.079-0.108,0.113l-0.028,0.028l-0.036,0.058l-0.072,0.115
			l-0.287,0.461l-0.072,0.115c0.03-0.054,0.004-0.006,0.008-0.015l-0.008,0.015l-0.016,0.03l-0.032,0.06l-0.127,0.24l-0.255,0.479
			l-0.128,0.239l-0.102,0.221l-0.462,0.99c-0.625,1.314-1.28,2.614-1.986,3.89c-0.354,0.637-0.724,1.267-1.12,1.884
			c-0.402,0.614-0.814,1.224-1.365,1.759c-0.143,0.131-0.288,0.261-0.483,0.359c-0.086,0.056-0.209,0.085-0.323,0.112
			c-0.066,0.001-0.133-0.001-0.198-0.006l-0.024-0.002c-0.048-0.011-0.023-0.006-0.038-0.01l-0.032-0.011l-0.064-0.022
			c-0.157-0.042-0.379-0.162-0.532-0.283c-0.161-0.122-0.29-0.268-0.414-0.417c-0.458-0.621-0.704-1.33-0.889-2.037
			c-0.373-1.418-0.513-2.871-0.599-4.319c-0.084-1.449-0.099-2.899-0.043-4.349L144.087,168.851z"/>
	</g>
	<g>
		<path fill="#6C6C6C" d="M176.652,147.903l-0.147,0.069c-0.098,0.036-0.225,0.14-0.419,0.194c-0.095,0.032-0.2,0.083-0.32,0.123
			c-0.122,0.025-0.257,0.059-0.409,0.096c-0.15,0.021-0.315,0.025-0.498,0.034c-0.176-0.014-0.367-0.046-0.566-0.094
			c-0.185-0.085-0.385-0.144-0.576-0.299c-0.19-0.151-0.404-0.352-0.489-0.484c-0.306-0.355-0.476-0.873-0.514-1.388
			c-0.022-0.526,0.123-1.056,0.385-1.517c0.157-0.217,0.305-0.43,0.547-0.605c0.234-0.203,0.42-0.24,0.626-0.347
			c0.057-0.035,0.019-0.011,0.033-0.019l0.006-0.002l0.012-0.003l0.023-0.006l0.046-0.012l0.092-0.024l0.18-0.047
			c0.115-0.042,0.24-0.047,0.36-0.058c0.237-0.048,0.474-0.013,0.706-0.015c0.459,0.065,0.909,0.162,1.34,0.373
			c0.109,0.051,0.212,0.132,0.318,0.204l0.158,0.116c0.051,0.039,0.078,0.071,0.115,0.108c0.07,0.072,0.139,0.143,0.207,0.213
			l0.012,0.014l0.006,0.007l0.003,0.003l0.029,0.046l0.022,0.038l0.043,0.076l0.081,0.155c0.221,0.412,0.233,0.881,0.164,1.27
			c-0.058,0.193-0.129,0.372-0.206,0.528c-0.102,0.15-0.191,0.288-0.287,0.404c-0.111,0.109-0.21,0.206-0.295,0.296
			c-0.099,0.082-0.2,0.147-0.277,0.211c-0.152,0.14-0.293,0.186-0.376,0.252c-0.085,0.057-0.131,0.088-0.131,0.088L176.652,147.903z
			 M176.718,147.713c0.074-0.066,0.223-0.141,0.316-0.302c0.051-0.077,0.109-0.156,0.153-0.254c0.039-0.105,0.074-0.219,0.106-0.335
			c0.021-0.122,0.022-0.256,0.034-0.382c0.001-0.131-0.026-0.267-0.026-0.396c-0.056-0.264-0.08-0.526-0.181-0.801l-0.032-0.106
			l-0.013-0.056l-0.007-0.028c-0.024-0.038,0.031,0.048,0.025,0.038l-0.002-0.004l-0.004-0.008l-0.008-0.016
			c-0.042-0.088-0.085-0.178-0.128-0.268c-0.022-0.041-0.042-0.1-0.062-0.131l-0.06-0.092c-0.043-0.062-0.074-0.139-0.133-0.206
			c-0.232-0.28-0.597-0.483-0.996-0.517c-0.199,0.005-0.4,0.011-0.586,0.089c-0.093,0.034-0.186,0.062-0.267,0.124l-0.212,0.146
			c-0.144,0.154-0.357,0.321-0.398,0.464c-0.088,0.118-0.147,0.293-0.225,0.437c-0.107,0.319-0.139,0.639-0.094,0.937
			c0.077,0.29,0.143,0.561,0.313,0.797c0.105,0.198,0.18,0.23,0.243,0.326c0.065,0.091,0.185,0.175,0.268,0.278
			c0.105,0.073,0.204,0.169,0.313,0.241c0.112,0.058,0.225,0.13,0.339,0.177c0.115,0.035,0.23,0.066,0.339,0.089
			c0.108,0.015,0.209,0.007,0.302,0.005c0.19,0.005,0.32-0.075,0.416-0.101c0.092-0.036,0.141-0.055,0.142-0.055
			C176.603,147.795,176.645,147.765,176.718,147.713z"/>
	</g>
</g>
</svg>
