<?xml version="1.0" encoding="utf-8"?>
<!-- Generator: Adobe Illustrator 17.0.0, SVG Export Plug-In . SVG Version: 6.00 Build 0)  -->
<!DOCTYPE svg PUBLIC "-//W3C//DTD SVG 1.1//EN" "http://www.w3.org/Graphics/SVG/1.1/DTD/svg11.dtd">
<svg version="1.1" id="Laag_1" xmlns="http://www.w3.org/2000/svg" xmlns:xlink="http://www.w3.org/1999/xlink" x="0px" y="0px"
	 width="34.15px" height="33.199px" viewBox="0 0 34.15 33.199" enable-background="new 0 0 34.15 33.199" xml:space="preserve">
<g>
	<g>
		<path fill="#82B443" d="M251.177,33.199h20.411c1.693,0,3.698-1.239,4.455-2.754l8.991-17.982
			c0.757-1.514-0.009-2.754-1.702-2.754h-5.588c-1.693,0-4.464,0-6.157,0h-17.332c-1.693,0-3.079,1.385-3.079,3.079"/>
	</g>
	<g>
		<path fill="#82B443" d="M34.15,12.788c0-1.693-1.385-3.079-3.079-3.079H13.739c-1.693,0-3.698,1.239-4.455,2.754L0.292,30.445
			c-0.757,1.514,0.009,2.754,1.702,2.754h5.588c1.693,0,4.464,0,6.157,0H34.15"/>
	</g>
	<g>
		<polygon fill="#7B9F30" points="34.15,33.199 21.792,21.454 21.319,4.109 34.15,0 		"/>
	</g>
	<g>
		<polygon fill="#7B9F30" points="251.177,33.199 263.534,21.454 258.333,0 251.177,0 		"/>
	</g>
	<g>
		<path fill="#82B443" d="M263.534,20.411V3.079c0-1.693-1.385-3.079-3.079-3.079l-95.305,0c-1.693,0-3.135,0-3.203,0
			c-0.069,0-1.51,0-3.203,0l-17.083,0c-1.693,0-4.464,0-6.157,0l-17.332,0c-1.693,0-4.464,0-6.157,0L94.866,0
			c-1.693,0-3.12,0-3.17,0c-0.05,0-1.477,0-3.17,0L71.376,0c-1.693,0-4.464,0-6.157,0L47.887,0c-1.693,0-4.464,0-6.157,0L24.397,0
			c-1.693,0-3.079,1.385-3.079,3.079v17.332c0,1.693,1.385,3.079,3.079,3.079H41.73c1.693,0,4.464,0,6.157,0h17.332
			c1.693,0,4.464,0,6.157,0h17.149c1.693,0,3.12,0,3.17,0c0.05,0,1.477,0,3.17,0h17.149c1.693,0,4.464,0,6.157,0h17.332
			c1.693,0,4.464,0,6.157,0h17.083c1.693,0,3.135,0,3.203,0s100.509,0,102.202,0"/>
	</g>
</g>
</svg>
